<svg xmlns="http://www.w3.org/2000/svg" xmlns:xlink="http://www.w3.org/1999/xlink" fill="none" version="1.1" width="14"
     height="14" viewBox="0 0 14 14">
  <path
    d="M7,14Q5.578125,14,4.2792969,13.453125Q3.0214844,12.919922,2.0507812,11.949219Q1.0800781,10.978516,0.546875,9.7207031Q0,8.421875,0,7Q0,5.578125,0.546875,4.2792969Q1.0800781,3.0214844,2.0507812,2.0507812Q3.0214844,1.0800781,4.2792969,0.546875Q5.578125,0,7,0Q8.421875,0,9.7207031,0.546875Q10.978516,1.0800781,11.949219,2.0507812Q12.919922,3.0214844,13.453125,4.2792969Q14,5.578125,14,7Q14,8.421875,13.453125,9.7207031Q12.919922,10.978516,11.949219,11.949219Q10.978516,12.919922,9.7207031,13.453125Q8.421875,14,7,14ZM10.541016,6.2207031L6.5625,6.2207031Q6.4257812,6.2207031,6.3232422,6.3232422Q6.2207031,6.4257812,6.2207031,6.5625L6.2207031,7.4375Q6.2207031,7.5742188,6.3232422,7.6767578Q6.4257812,7.7792969,6.5625,7.7792969L8.9824219,7.7792969Q9.1328125,7.7792969,9.2353516,7.8818359Q9.3378906,7.984375,9.3378906,8.1210938L9.3378906,8.2988281Q9.3378906,8.7226562,9.0302734,9.0302734Q8.7226562,9.3378906,8.2988281,9.3378906L5.0175781,9.3378906Q4.8671875,9.3378906,4.7646484,9.2353516Q4.6621094,9.1328125,4.6621094,8.9824219L4.6621094,5.7011719Q4.6621094,5.2773438,4.9697266,4.9697266Q5.2773438,4.6621094,5.7011719,4.6621094L10.541016,4.6621094Q10.691406,4.6621094,10.787109,4.5664062Q10.882812,4.4707031,10.882812,4.3203125L10.882812,3.4589844Q10.882812,3.3085938,10.787109,3.2128906Q10.691406,3.1171875,10.541016,3.1171875L5.7011719,3.1171875Q5.1816406,3.1171875,4.7099609,3.3085938Q4.2382812,3.5,3.8691406,3.8691406Q3.5,4.2382812,3.3085938,4.7099609Q3.1171875,5.1816406,3.1171875,5.7011719L3.1171875,10.541016Q3.1171875,10.691406,3.2128906,10.787109Q3.3085938,10.882812,3.4589844,10.882812L8.5585938,10.882812Q9.1875,10.882812,9.7275391,10.575195Q10.267578,10.267578,10.575195,9.7275391Q10.882812,9.1875,10.882812,8.5585938L10.882812,6.5625Q10.882812,6.4257812,10.787109,6.3232422Q10.691406,6.2207031,10.541016,6.2207031Z"
    fill="#77869e" fill-opacity="1"/>
</svg>