<svg xmlns="http://www.w3.org/2000/svg" xmlns:xlink="http://www.w3.org/1999/xlink" fill="none" version="1.1"
     width="18" height="18" viewBox="0 0 16 16">
  <path
    d="M6.666667,4.666667C10.348566,4.666667,13.333334,3.6219978,13.333334,2.3333335C13.333334,1.0446689,10.348566,0,6.666667,0C2.9847684,0,0,1.0446689,0,2.3333335C0,3.6219978,2.9847684,4.666667,6.666667,4.666667ZM13.333334,4C13.333334,5.2886648,10.348566,6.3333335,6.666667,6.3333335C2.9847684,6.3333335,0,5.2886648,0,4L0,7.3333335C0,8.6219921,2.9847684,9.6666603,6.666667,9.6666603C10.348566,9.6666603,13.333334,8.6219921,13.333334,7.3333278L13.333334,4ZM0,9.333334C0,10.102644,1.348784,10.937078,3.2328086,11.333334L3.2192228,11.333334C4.1689858,11.510357,5.3214579,11.666671,6.666667,11.666677C8.01192,11.666682,9.164423,11.510364,10.114204,11.333334L10.100525,11.333334C11.98455,10.937078,13.333334,10.102644,13.333334,9.333334L13.333334,11.333334C13.333334,12.621989,10.348566,13.666658,6.666667,13.666658C2.9847684,13.666658,0,12.621989,0,11.333324L0,9.333334Z"
    fill-rule="evenodd" fill="#77869e" fill-opacity="1"/>
</svg>