<svg xmlns="http://www.w3.org/2000/svg" xmlns:xlink="http://www.w3.org/1999/xlink" fill="none" version="1.1" width="16"
     height="16" viewBox="0 0 16 16">
  <defs>
    <clipPath id="master_svg0_371_33774">
      <rect x="0" y="0" width="16" height="16" rx="0"/>
    </clipPath>
  </defs>
  <g clip-path="url(#master_svg0_371_33774)">
    <path
      d="M12.666667373069764,6.666666873069763L12.000000373069764,6.666666873069763L12.000000373069764,6.0000003730697635C12.000000373069764,4.895430473069763,11.104569773069763,4.000000073069764,10.000000373069764,4.000000073069764L9.333333373069763,4.000000073069764L9.333333373069763,3.333333373069763C9.333333373069763,2.2287638230697633,8.437903273069765,1.3333333730697632,7.333333373069763,1.3333333730697632L6.0000003730697635,1.3333333730697632C4.895430473069763,1.3333333730697632,4.000000073069764,2.2287638230697633,4.000000073069764,3.333333373069763L4.000000073069764,4.000000073069764L3.333333373069763,4.000000073069764C2.2287638230697633,4.000000073069764,1.3333333730697632,4.895430473069763,1.3333333730697632,6.0000003730697635L1.3333333730697632,8.000000373069764L2.666666773069763,8.000000373069764C3.403046473069763,8.000000373069764,4.000000073069764,8.596953773069764,4.000000073069764,9.333333373069763C4.000000073069764,10.069712973069763,3.403046473069763,10.666667373069764,2.666666773069763,10.666667373069764L1.3333333730697632,10.666667373069764L1.3333333730697632,12.666667373069764C1.3333333730697632,13.771236373069764,2.2287638230697633,14.666667373069764,3.333333373069763,14.666667373069764L10.000000373069764,14.666667373069764C11.104569773069763,14.666667373069764,12.000000373069764,13.771236373069764,12.000000373069764,12.666667373069764L12.000000373069764,12.000000373069764L12.666667373069764,12.000000373069764C13.771236373069764,12.000000373069764,14.666667373069764,11.104569773069763,14.666667373069764,10.000000373069764L14.666667373069764,8.666666873069763C14.666667373069764,7.562096973069763,13.771236373069764,6.666666873069763,12.666667373069764,6.666666873069763ZM12.000000373069764,10.666667373069764L10.666667373069764,10.666667373069764L10.666667373069764,12.666667373069764C10.666667373069764,13.034856373069763,10.368190173069763,13.333333373069763,10.000000373069764,13.333333373069763L3.333333373069763,13.333333373069763C2.9651435730697635,13.333333373069763,2.666666773069763,13.034856373069763,2.666666773069763,12.666667373069764L2.666666773069763,12.000000373069764L3.333333373069763,12.000000373069764C4.437903273069763,12.000000373069764,5.333333373069763,11.104569773069763,5.333333373069763,10.000000373069764L5.333333373069763,8.666666873069763C5.333333373069763,7.562096973069763,4.437903273069763,6.666666873069763,3.333333373069763,6.666666873069763L2.666666773069763,6.666666873069763L2.666666773069763,6.0000003730697635C2.666666773069763,5.631810573069763,2.9651435730697635,5.333333373069763,3.333333373069763,5.333333373069763L5.333333373069763,5.333333373069763L5.333333373069763,4.000000073069764C5.333333373069763,3.2636204730697633,5.930287273069763,2.666666773069763,6.666666873069763,2.666666773069763C7.403046473069764,2.666666773069763,8.000000373069764,3.2636204730697633,8.000000373069764,4.000000073069764L8.000000373069764,5.333333373069763L10.000000373069764,5.333333373069763C10.368190173069763,5.333333373069763,10.666667373069764,5.631810573069763,10.666667373069764,6.0000003730697635L10.666667373069764,8.000000373069764L12.000000373069764,8.000000373069764C12.736381373069763,8.000000373069764,13.333333373069763,8.596953773069764,13.333333373069763,9.333333373069763C13.333333373069763,10.069712973069763,12.736381373069763,10.666667373069764,12.000000373069764,10.666667373069764Z"
      fill-rule="evenodd" fill="currentColor" fill-opacity="1"/>
  </g>
</svg>