<svg xmlns="http://www.w3.org/2000/svg" xmlns:xlink="http://www.w3.org/1999/xlink" fill="none" version="1.1" width="16"
     height="16" viewBox="0 0 16 16">
  <defs>
    <clipPath id="master_svg0_371_31965">
      <rect x="0" y="0" width="16" height="16" rx="0"/>
    </clipPath>
  </defs>
  <g clip-path="url(#master_svg0_371_31965)">
    <path
      d="M1.3333333730697632,3.3333335730697633L1.3333333730697632,4.666666873069763Q1.3333334128061942,5.495094173069763,1.9191198330697632,6.080880473069763Q2.5049065730697633,6.666666873069763,3.333333373069763,6.666666873069763L10.666667373069764,6.666666873069763Q11.495094373069763,6.666666373069763,12.080879373069763,6.080880473069763Q12.666667373069764,5.495092773069763,12.666667373069764,4.666666873069763L12.666667373069764,3.3333335730697633Q12.666667373069764,2.5049068730697632,12.080879373069763,1.9191198330697632Q11.495093373069762,1.3333333730697632,10.666667373069764,1.3333333730697632L3.3333335730697633,1.3333333730697632Q2.5049062730697633,1.3333334128061942,1.9191198330697632,1.9191198330697632Q1.3333333730697632,2.5049062730697633,1.3333333730697632,3.3333335730697633ZM2.861928773069763,5.138071373069764Q2.666666773069763,4.942809473069763,2.666666773069763,4.666666873069763L2.666666773069763,3.3333335730697633Q2.666666773069763,3.0571909730697633,2.861928773069763,2.861928773069763Q3.0571909730697633,2.666666773069763,3.3333335730697633,2.666666773069763L10.666667373069764,2.666666773069763Q10.942809473069763,2.666666773069763,11.138071373069764,2.861928773069763Q11.333333373069763,3.0571912730697632,11.333333373069763,3.3333335730697633L11.333333373069763,4.666666873069763Q11.333333373069763,4.942808973069763,11.138071373069764,5.138071373069764Q10.942809473069763,5.333333373069763,10.666667373069764,5.333333373069763L3.333333373069763,5.333333373069763Q3.0571909730697633,5.333333373069763,2.861928773069763,5.138071373069764Z"
      fill-rule="evenodd" fill="currentColor" fill-opacity="1"/>
    <path
      d="M6,10.666667369116212L6,13.333333969116211Q6,13.88561816911621,6.39052433,14.27614306911621Q6.78104895,14.666667469116211,7.3333334,14.666667469116211L8.6666667,14.666667469116211Q9.218951,14.666667469116211,9.6094759,14.27614306911621Q10,13.885619169116211,10,13.333333969116211L10,10.666667369116212Q10,10.11438262911621,9.6094759,9.72385829911621Q9.2189517,9.333333969116211,8.6666667,9.333333969116211L7.3333334,9.333333969116211Q6.78104866,9.333333969116211,6.39052433,9.72385829911621Q6,10.11438262911621,6,10.666667369116212ZM8.6666667,13.333333969116211L7.3333334,13.333333969116211L7.3333334,10.666667369116212L8.6666667,10.666667369116212L8.6666667,13.333333969116211Z"
      fill-rule="evenodd" fill="currentColor" fill-opacity="1"/>
    <path
      d="M7.723857822279053,7.723858392279053Q7.333333492279053,8.114382292279053,7.333333492279053,8.666666992279053L7.333333492279053,10.000000492279053C7.333333492279053,10.368190292279053,7.631810312279053,10.666666992279053,8.000000182279052,10.666666992279053C8.368190092279052,10.666666992279053,8.666666892279054,10.368190292279053,8.666666892279054,10.000000492279053L8.666666892279054,8.666666992279053L13.333333492279053,8.666666992279053Q13.885617692279052,8.666666992279053,14.276142592279053,8.276142592279053Q14.666666992279053,7.885617692279053,14.666666992279053,7.333333492279053L14.666666992279053,4.666666892279053Q14.666666992279053,4.114382682279053,14.276142592279053,3.7238578822790527Q13.885618692279053,3.3333334922790527,13.333333492279053,3.3333334922790527L12.421052892279054,3.3333334922790527C12.052863092279054,3.3333334922790527,11.754386392279052,3.6318103122790526,11.754386392279052,4.000000182279052C11.754386392279052,4.368190092279052,12.052863092279054,4.666666892279053,12.421052892279054,4.666666892279053L13.333333492279053,4.666666892279053L13.333333492279053,7.333333492279053L8.666666892279054,7.333333492279053Q8.114382442279053,7.333333492279053,7.723857822279053,7.723858392279053Z"
      fill-rule="evenodd" fill="currentColor" fill-opacity="1"/>
  </g>
</svg>