<svg xmlns="http://www.w3.org/2000/svg" xmlns:xlink="http://www.w3.org/1999/xlink" fill="none" version="1.1" width="16"
     height="16" viewBox="0 0 16 16">
  <defs>
    <clipPath id="master_svg0_371_31969">
      <rect x="0" y="0" width="16" height="16" rx="0"/>
    </clipPath>
  </defs>
  <g clip-path="url(#master_svg0_371_31969)">
    <path
      d="M12.580000897155761,10.046667100893554L12.666666997155762,10.393334090893555C12.833333697155762,11.066667590893555,13.360001097155761,11.593333590893554,14.033333297155762,11.766667090893554L14.380000097155762,11.853333190893554C14.486666697155762,11.880000490893554,14.546667097155762,11.986667190893554,14.519999497155762,12.086666790893554C14.499998997155762,12.153333690893554,14.446665797155763,12.213333890893555,14.380000097155762,12.226666190893555L14.033333297155762,12.313332290893555C13.35999969715576,12.479999090893555,12.833333697155762,13.006666190893554,12.660000297155761,13.686665290893554L12.573334197155761,14.033332390893555C12.546666897155761,14.139998890893555,12.440000297155763,14.199998890893553,12.340000597155761,14.173331690893555C12.273333597155762,14.153331290893554,12.220000297155762,14.099997990893556,12.200001097155761,14.033332390893555L12.113334997155762,13.686665290893554C11.946668397155761,13.013331890893554,11.420000997155762,12.479999090893555,10.740002007155761,12.313332290893555L10.393335027155763,12.226666190893555C10.286668461155761,12.199998890893555,10.226668358155761,12.093332290893555,10.253334999055761,11.993332590893555C10.273334822155762,11.926665790893555,10.326668106155761,11.866665590893554,10.393335027155763,11.853333190893554L10.740002007155761,11.766667090893554C11.413335597155761,11.600000390893555,11.940001497155762,11.073334490893554,12.113334997155762,10.400000270893555L12.200001097155761,10.053333920893555C12.226668397155763,9.946667354893554,12.326668297155761,9.886667251893554,12.433334797155762,9.913333892793554C12.506668597155763,9.933333715893555,12.560001897155761,9.986666999893554,12.573334197155761,10.060000750893554L12.580000897155761,10.046667100893554Z"
      fill="currentColor" fill-opacity="1"/>
    <path
      d="M3.6936522230697633,2.7133595235290526L3.7803191230697633,3.0600261735290526C3.946985623069763,3.733359573529053,4.473652223069763,4.260026173529052,5.146985923069764,4.433359373529052L5.4936522230697635,4.520026073529053C5.600318823069763,4.5466927735290525,5.660318723069763,4.653359373529053,5.633652123069763,4.753359273529053C5.613652623069763,4.820025873529053,5.560319323069764,4.880026073529052,5.4936522230697635,4.893359373529053L5.146985223069763,4.980026273529052C4.4736517230697626,5.146692773529052,3.946985123069763,5.673359373529053,3.7736519230697634,6.346692573529053L3.6869851230697632,6.693358873529053C3.6603185230697632,6.800025473529053,3.553651923069763,6.860025873529053,3.4536518230697633,6.8333592735290525C3.3869852230697632,6.813359273529053,3.3336519230697634,6.760025973529053,3.313651823069763,6.693358873529053L3.2269851230697633,6.346692373529052C3.0603183230697635,5.673359173529053,2.533651723069763,5.146692473529052,1.8536517330697633,4.973359073529053L1.5069850730697631,4.886692273529053C1.4003185030697631,4.860025673529053,1.3403184000697632,4.753359073529053,1.3669850430697632,4.653358973529053C1.3869851830697633,4.586692373529052,1.4403184650697631,4.5266922735290525,1.5069850730697631,4.513358973529053L1.8536517330697633,4.426692273529053C2.5269849230697634,4.260025473529053,3.053651523069763,3.7333588735290526,3.2269851230697633,3.053358883529053L3.313651823069763,2.706692223529053C3.340318423069763,2.600025575529053,3.446985123069763,2.5400255505290525,3.5469850230697633,2.5666921935290525C3.6136516230697633,2.5866921745290528,3.673651823069763,2.6400255415290528,3.6869851230697632,2.706692223529053L3.6936522230697633,2.7133595235290526Z"
      fill="currentColor" fill-opacity="1"/>
    <path
      d="M7.880148909558105,0.193359375C7.793482809558105,0.193359375,7.713482309558105,0.253359318,7.693481809558105,0.340026065L7.673481309558105,0.413359325C7.546814309558106,0.920026005,7.1534808895581055,1.313359275,6.646814029558105,1.440026075L6.580147119558106,1.460026175C6.513480186558105,1.480026275,6.453480085558105,1.533359575,6.440147717958105,1.600026175C6.413480440558105,1.706692675,6.480147361558106,1.806692875,6.580147119558106,1.833359475L6.653480859558106,1.853359575C7.160147669558105,1.980026275,7.553481109558105,2.373359675,7.680146909558106,2.880026375L7.700147409558106,2.946692975C7.720147809558106,3.013359575,7.773481109558105,3.073359475,7.840146809558106,3.086692775C7.853480309558106,3.086692775,7.873479609558105,3.086692775,7.886813209558105,3.086692775C7.973479309558106,3.086692775,8.053479909558106,3.026692875,8.073480409558105,2.940026275L8.093480809558105,2.866692975C8.220147809558105,2.360026075,8.613481309558106,1.966692875,9.120146709558105,1.840026275L9.186813809558105,1.820026175C9.253480709558104,1.800025975,9.313480809558106,1.746692675,9.326813209558106,1.680026075C9.353480309558105,1.573359475,9.286813509558105,1.473359475,9.186813809558105,1.446692775L9.113480109558106,1.426692675C8.606813209558105,1.300025975,8.213479709558106,0.906692685,8.086813909558106,0.40002600499999996L8.066813509558106,0.333359405C8.046813009558106,0.266692802,7.993479709558105,0.206692696,7.926814109558105,0.193359375C7.913480509558106,0.193359375,7.8934812095581055,0.193359375,7.880148909558105,0.193359375Z"
      fill="currentColor" fill-opacity="1"/>
    <g>
      <path
        d="M9.778824775,3.133426073125C10.318072274999999,2.602875773125,11.013874075,2.333251953125,11.718377075,2.333251953125L11.718378075,2.350646611125C12.422878275,2.350646611125,13.118681875,2.620270433125,13.657929875,3.150820733125C14.727728875,4.220618453125,14.727728875,5.951430353125,13.657929875,7.021227853125L6.720052275,13.959228953125C6.485218075,14.202760953125,6.163423075,14.333251953125,5.824218775,14.333251953125L3.101562495,14.333251953125C2.753660525,14.333251953125,2.466796875,14.046225953125,2.466796875,13.698323953125L2.466796875,10.975993153125C2.466796875,10.636787453125,2.605661075,10.314992953125,2.840494815,10.080159653125001L9.778824775,3.133426073125ZM12.735988875,4.055365553125C12.457667375,3.785742053125,12.101068475,3.637883753125,11.718377075,3.637883753125C11.335686675,3.637883753125,10.970388375,3.785741253125,10.700763675,4.055365553125L10.157249475,4.5995669531250005L12.188474675,6.630792153125L12.735988875,6.081892953125C13.292631875,5.525250453125,13.292631875,4.6120085531249995,12.735988875,4.055365553125ZM11.263356175,7.558250953125L9.231546375,5.526441053125L3.771484375,10.993408153125L3.771484375,13.011148953125L5.824218775,13.011148953125L11.263356175,7.558250953125Z"
        fill-rule="evenodd" fill="currentColor" fill-opacity="1"/>
    </g>
  </g>
</svg>