<svg xmlns="http://www.w3.org/2000/svg" xmlns:xlink="http://www.w3.org/1999/xlink" fill="none" version="1.1"
     width="13.800000011920929" height="13.276537716388702" viewBox="0 0 13.800000011920929 13.276537716388702">
  <path
    d="M13.649282005960464,6.003014005960464C13.580470005960464,7.332933805960464,13.093685005960465,8.491715805960464,12.188958005960464,9.479326605960464C11.284181005960464,10.466985005960465,10.166857005960464,11.059343005960464,8.836986905960465,11.256385005960464C7.507001305960465,11.453377005960464,6.266408305960464,11.210412005960464,5.115024505960465,10.527361005960465C5.094460405960464,10.515169005960464,5.073995505960465,10.502843005960464,5.0536450059604645,10.490451005960464L3.5408553059604646,12.881224005960464C3.3850907059604647,13.127204005960465,3.0594410059604646,13.200447005960465,2.8134121059604644,13.044800005960465C2.5673660059604644,12.889085005960464,2.4941391059604645,12.563436005960465,2.6497880059604646,12.317406005960464L4.203178305960464,9.862351805960465C3.9089767059604643,9.599751905960465,3.6451608059604643,9.304978805960465,3.4166788059604647,8.983560005960465C3.4125101059604646,8.987055205960464,3.4082920059604644,8.990416005960464,3.4040238059604646,8.993793905960464L3.4041225059604643,8.993841605960464L1.0021112259604643,10.873096005960464L1.0021112259604643,10.873096005960464C0.7727408659604644,11.052490005960465,0.44140615596046445,11.012037005960465,0.2620128359604645,10.782733005960464C0.08257010596046448,10.553411005960465,0.12307239496046447,10.222060005960465,0.3523439459604645,10.042684005960464L0.3523439459604645,10.042568605960465L2.7543556059604644,8.163312305960465C2.7981657059604643,8.128978205960465,2.8471409059604644,8.101804205960464,2.8994586059604646,8.082801205960465C2.8309573059604647,7.932263305960465,2.7687172059604643,7.778955805960464,2.7128974059604647,7.6232699059604645C2.2628078059604646,6.370269205960464,2.2655591059604645,5.116640905960464,2.7210211059604643,3.8624865059604643C3.1765486059604644,2.6083313059604647,3.9814538059604643,1.6382861059604645,5.135787405960465,0.9523828359604645C6.290086205960464,0.2663809159604645,7.531784005960464,0.020302205960464476,8.860879305960465,0.2139652369604645C10.189959005960464,0.40769421596046446,11.304696005960464,0.9972023059604644,12.205204005960464,1.9826050059604645C12.401620005960465,2.1975736059604647,12.386591005960465,2.5310833059604643,12.171606005960465,2.7275640059604647C12.110475005960465,2.7834271059604645,12.037046005960464,2.8241054059604647,11.957265005960464,2.8463031059604647C11.933551005960464,2.8603198059604646,11.908780005960464,2.8724677059604646,11.883181005960465,2.8826362059604644C11.426449005960464,3.0642208059604643,11.032187005960465,3.3365165059604647,10.700472005960464,3.6994058059604646C10.368760005960464,4.062180205960464,10.132848205960464,4.479264605960465,9.992852605960465,4.9503969059604644C9.873471605960464,5.3519601059604645,9.833923705960464,5.758466105960465,9.874211705960464,6.169915105960465C10.331372005960464,6.296497205960464,10.794330005960465,6.320192705960465,11.263206005960464,6.240770205960464C11.745773005960464,6.159039905960465,12.186371005960465,5.976384105960465,12.585001005960464,5.692719405960465C12.630721005960465,5.660092305960465,12.681365005960464,5.634987305960465,12.735015005960465,5.618355205960465C12.841303005960464,5.503069805960465,12.993394005960464,5.4410781059604645,13.149990005960465,5.449211005960464C13.440790005960464,5.464239005960464,13.664360005960464,5.712212905960464,13.649282005960464,6.003014005960464L13.649282005960464,6.003014005960464ZM11.439203005960465,7.280534205960464C11.023798005960465,7.350877705960465,10.611839005960464,7.360368205960464,10.203355005960464,7.3090080059604645C10.274648005960465,7.4492067059604645,10.356066005960464,7.584022405960464,10.446961005960464,7.712383205960465C10.615001005960465,7.9501904059604644,10.558483005960465,8.279218105960464,10.320675005960464,8.447307005960464C10.082869005960465,8.615413105960464,9.753841805960464,8.558895505960464,9.585735705960465,8.321022405960464C9.209053405960464,7.788049105960464,8.967754705960465,7.199480405960465,8.861770105960465,6.555250505960465C8.755783505960464,5.911052605960465,8.795857805960464,5.275934605960464,8.981991205960464,4.649944205960464C9.168024405960464,4.023954305960464,9.481431405960464,3.4698729059604645,9.922145305960465,2.9877669059604646C10.211198005960464,2.6716086059604645,10.536007005960464,2.4072229059604644,10.896524005960465,2.1945771059604646C10.271159005960465,1.6912805059604645,9.541919105960465,1.3789610059604644,8.708803605960464,1.2575859059604644C7.626117105960464,1.0997618759604646,6.614729305960465,1.3002470059604645,5.674475605960464,1.8589579059604644C4.7361006059604644,2.4165653059604644,4.082065705960464,3.2044324059604645,3.7122723059604645,4.222527405960465C3.3434342059604645,5.237969305960465,3.3411607059604647,6.252751305960465,3.7054173059604643,7.266776505960465C4.069987405960465,8.281806405960465,4.719227705960464,9.066412405960465,5.653121405960465,9.620377005960464C6.589683905960465,10.176024005960464,7.599440505960464,10.373609005960464,8.682391505960464,10.213197005960465C9.765441305960465,10.052703305960465,10.675112005960465,9.570647605960465,11.411305005960465,8.767009205960465C11.898421005960465,8.235240405960464,12.236198005960464,7.642733005960465,12.424653005960465,6.989357405960464C12.112285005960464,7.125134405960464,11.783784005960465,7.222221305960464,11.439203005960465,7.280534205960464Z"
    fill="currentColor" fill-opacity="1"/>
  <path
    d="M2.6619271059604643,8.045173105960465L0.25991535596046444,9.924429305960464L0.4447725459604645,10.160709005960465L2.8467843059604645,8.281452605960464Q2.8941816059604646,8.244306005960464,2.9506694059604643,8.223788605960465L3.1032020059604646,8.168384005960464L3.0359880059604647,8.020674105960463Q2.9357633059604646,7.800420705960464,2.8540963059604643,7.572644105960465Q2.1972701059604645,5.744111905960464,2.8620116059604643,3.9136902059604646Q3.5270199059604646,2.0827927059604647,5.212410805960465,1.0813358759604643Q6.8980674059604645,0.07954702496046448,8.839251905960465,0.3623976859604645Q10.779880005960464,0.6452671559604645,12.094476005960464,2.0837940059604643Q12.348936005960464,2.3622893059604646,12.070413005960464,2.6168400059604644Q12.003886005960464,2.6776341059604647,11.917058005960465,2.7017926059604647L11.897985005960464,2.7070991059604643L11.880942005960465,2.7171725059604643Q11.855390005960464,2.7322749059604643,11.827807005960464,2.7432314059604646Q11.110652005960464,3.0283536059604645,10.589757005960465,3.5982019059604644Q10.068911005960464,4.167819905960465,9.849066205960465,4.907670905960464Q9.661632905960465,5.5381454059604645,9.724926405960465,6.184533005960464L9.734960005960465,6.287001505960465L9.834185005960464,6.314475905960465Q10.552329005960464,6.513321305960464,11.288257005960464,6.3886637059604645Q12.046083005960465,6.260313905960465,12.671970005960464,5.814934605960464Q12.721502005960465,5.779587205960464,12.779432005960464,5.761628505960465L12.817957005960464,5.749685205960464L12.845297005960465,5.720030705960465Q12.965343005960465,5.589823605960465,13.142210005960465,5.599009405960464Q13.298293005960465,5.607075105960464,13.402933005960465,5.723139205960464Q13.507574005960464,5.839204705960465,13.499483005960464,5.995246805960464Q13.399049005960464,7.936314505960464,12.078351005960464,9.378003505960464Q10.757140005960464,10.820245005960464,8.815002805960464,11.108005005960464Q6.872712005960464,11.395688005960464,5.191556805960465,10.398355005960465L5.005290905960464,10.286341005960464L3.4140998059604644,12.801018005960465Q3.2123193059604644,13.119667005960464,2.8936070059604644,12.918038005960465Q2.5749032059604646,12.716340005960465,2.7765504059604647,12.397604005960465L4.397918605960465,9.835112005960465L4.303064305960464,9.750446705960465Q3.8729600059604645,9.366542205960464,3.5389368059604647,8.896652605960465L3.4448067059604646,8.764234005960464L3.3203079059604645,8.868613605960464Q3.3172800059604644,8.871152305960464,3.3109311059604645,8.876177205960465L3.3109907059604646,8.876252605960465L0.9097012559604645,10.754941005960465Q0.7866023459604645,10.851219005960465,0.6314995559604645,10.832282005960465Q0.4764128959604645,10.813347005960464,0.3801454859604645,10.690297005960465Q0.2838654959604645,10.567254005960464,0.3028045259604645,10.412161005960465Q0.32174225596046446,10.257080005960464,0.4447726559604645,10.160823005960465L0.2599152359604645,9.924544705960464Q0.03901658596046448,10.097369605960465,0.005016575960464481,10.375797005960465Q-0.028986724039535533,10.654251005960464,0.14388030956046446,10.875171005960464Q0.3167024659604645,11.096075005960465,0.5951417059604645,11.130070005960464Q0.8735637359604644,11.164064005960464,1.0945212559604645,10.991249005960464L3.3874048059604647,9.197373805960465Q3.6684526059604643,9.569578605960464,4.009241205960464,9.888323205960464L2.5230259059604645,12.237214005960464Q2.3730716059604644,12.474241005960465,2.4346205059604644,12.747888005960464Q2.4961721059604645,13.021546005960465,2.7332174059604646,13.171563005960465Q2.9702348059604646,13.321509005960465,3.2438928059604644,13.259969005960464Q3.5175308059604644,13.198433005960464,3.6676110059604645,12.961431005960465L5.102463605960464,10.693827005960465Q6.848170205960464,11.702597005960465,8.858972005960464,11.404766005960465Q10.906432005960465,11.101401005960465,12.299563005960465,9.580649805960464Q13.693080005960464,8.059470605960463,13.799080005960464,6.010781705960465Q13.813607005960465,5.730624605960465,13.625748005960464,5.522256805960464Q13.437889005960464,5.313888905960464,13.157771005960464,5.299413105960465Q12.860270005960464,5.2839622059604645,12.652319005960464,5.488193405960464Q12.570035005960465,5.519121605960464,12.498033005960464,5.570504105960464Q11.928180005960465,5.976010205960464,11.238155005960465,6.092877305960465Q10.619690005960464,6.197638905960464,10.015109405960464,6.051507905960465Q9.981010805960464,5.516612005960464,10.136640005960464,4.993122505960464Q10.336843005960464,4.319372105960465,10.811187005960464,3.8006097059604644Q11.285560005960464,3.2816552059604644,11.938555005960465,3.0220412059604644Q11.978672005960464,3.0061058059604644,12.016386005960465,2.9852680059604646Q12.160650005960465,2.9407734059604644,12.272801005960465,2.8382882059604646Q12.479893005960465,2.6490211059604647,12.492528005960464,2.3687741059604646Q12.505165005960464,2.0885220059604643,12.315934005960465,1.8814160059604645Q10.929105005960464,0.36384843596046446,8.882507705960464,0.06553257996046448Q6.836159605960464,-0.23264160403953554,5.059164005960464,0.8234302659604644Q3.2816335059604644,1.8796362059604645,2.5800306059604643,3.8112854059604646Q1.8783022059604644,5.743554005960465,2.5716988059604646,7.673895305960465Q2.6333899059604646,7.8459567059604645,2.7051531059604645,8.013935505960465Q2.6830267059604647,8.028636805960463,2.6619271059604643,8.045173105960465ZM12.657085005960464,6.724769005960464L12.364858005960464,6.851790805960465Q11.912917005960464,7.048236305960464,11.414174005960465,7.132636905960465Q10.812857005960465,7.234462205960464,10.222068005960464,7.1601800059604646L9.941452405960465,7.1248969059604645L10.069650105960465,7.376998805960464Q10.181693005960465,7.5973338059604645,10.324544005960464,7.7990684059604645Q10.542177005960465,8.107056505960465,10.234096005960465,8.324816105960464Q10.106473405960465,8.415032805960465,9.952468305960464,8.388573105960464Q9.798449905960464,8.362111505960465,9.708234205960464,8.234452605960465Q9.163160705960465,7.4632234059604645,9.009780305960465,6.530900905960465Q8.856398005960465,5.598628905960465,9.125771005960464,4.692696005960465Q9.395005605960465,3.7867333059604644,10.032857305960464,3.0889732059604644Q10.451215005960464,2.6313862059604647,10.972731005960464,2.3237766059604645L11.159455005960465,2.2136399059604646L10.990570005960464,2.0777210059604645Q10.020646505960464,1.2971224059604645,8.730428105960465,1.1091528859604645Q7.053952105960464,0.8647716959604644,5.597850205960465,1.7300059059604644Q4.144289405960464,2.5937511059604645,3.5712844059604643,4.171318005960464Q2.9995290059604645,5.745408005960464,3.5642492059604645,7.317486705960465Q4.129388505960465,8.890938205960465,5.576595205960465,9.749387205960465Q7.027202005960464,10.610009005960464,8.704369905960464,10.361578005960464Q10.381682005960464,10.113022205960464,11.521911005960465,8.868332305960465Q12.276368005960464,8.044715805960465,12.568778005960464,7.030927605960464L12.657085005960464,6.724769005960464ZM12.182555005960465,7.244841005960464Q11.835266005960465,7.365642005960464,11.464231005960464,7.428431905960465Q10.966601005960465,7.512698605960464,10.475056005960464,7.484426905960465Q10.520216005960464,7.556274305960464,10.569376005960464,7.625698005960465Q10.731347005960464,7.854916505960465,10.683845005960464,8.131389505960463Q10.636341005960464,8.407873505960465,10.407256005960464,8.569797905960465Q10.178160005960464,8.731745105960464,9.901668905960465,8.684240705960464Q9.625175905960464,8.636736305960465,9.463239105960465,8.407591205960465Q8.878343005960465,7.580016505960464,8.713759805960464,6.579600705960464Q8.549177605960464,5.579254105960464,8.838212405960464,4.607192905960464Q9.127072705960465,3.6351975059604644,9.811433205960464,2.8865601059604646Q10.183989005960465,2.4790694059604643,10.633436005960464,2.1821159059604645Q9.785273905960464,1.5659985059604644,8.687179005960465,1.4060190059604645Q7.115840805960464,1.1769639059604644,5.7511004059604645,1.9879099059604646Q4.389676505960464,2.7969047059604644,3.8532602059604644,4.273736905960464Q3.3185009059604647,5.745973505960465,3.8465854059604645,7.216066305960465Q4.375252205960464,8.687970505960465,5.729647505960465,9.491365805960465Q7.088640605960465,10.297635005960464,8.660413205960465,10.064816905960464Q10.232389005960464,9.831869505960464,11.300700005960465,8.665686005960465Q11.894996005960465,8.016910505960464,12.182555005960465,7.244841005960464Z"
    fill-rule="evenodd" fill="currentColor" fill-opacity="1"/>
</svg>