<svg xmlns="http://www.w3.org/2000/svg" xmlns:xlink="http://www.w3.org/1999/xlink" fill="none" version="1.1" width="16"
     height="16" viewBox="0 0 16 16">
  <defs>
    <clipPath id="master_svg0_371_31774">
      <rect x="0" y="0" width="16" height="16" rx="0"/>
    </clipPath>
  </defs>
  <g clip-path="url(#master_svg0_371_31774)">
    <path
      d="M8.000081546875,14.599804592132568C7.673415146875,14.599804592132568,7.346748346875,14.473137592132568,7.100081446875,14.226471592132569L6.493414846875,13.619804592132569L2.546747946875,13.639805592132568C1.5067480768750001,13.639804592132569,0.666748046875,12.799805592132568,0.666748046875,11.759804592132568L0.666748046875,3.2798046921325685C0.666748046875,2.2398046221325685,1.5067480768750001,1.3998045921325684,2.546748046875,1.3998045921325684L5.580081446875,1.3998045921325684C6.560081446875,1.3998045921325684,7.440081546875,1.8598046321325683,8.006748246875,2.573137992132568C8.573415246875001,1.8598046321325683,9.446748746875,1.3998045921325684,10.433415446875,1.3998045921325684L13.466749046875,1.3998045921325684C14.493415046875,1.3998045921325684,15.333415046875,2.2398046221325685,15.333415046875,3.2798046921325685L15.333415046875,11.766471592132568C15.333415046875,12.799804592132569,14.493415046875,13.646470592132568,13.453415046875,13.646470592132568L9.460082046875,13.646470592132568L8.900081646875,14.233136592132569C8.653414746875,14.479804592132568,8.326747846875,14.599804592132568,8.000081546875,14.599804592132568ZM2.546748046875,2.7331379921325683C2.246747946875,2.7331379921325683,2.000081446875,2.9731380921325683,2.000081446875,3.2798046921325685L2.000081446875,11.766471592132568C2.000081446875,12.066471592132569,2.246747946875,12.313137592132568,2.546748046875,12.313137592132568L6.540081046875,12.313137592132568C6.880081146875,12.313137592132568,7.200080846875,12.446471592132568,7.440081546875,12.686470592132569L8.000081546875,13.246471592132568L8.560081446875,12.679805592132569C8.800081246875,12.439804592132568,9.120081946875,12.306472592132568,9.460082046875,12.306472592132568L13.453415046875,12.306472592132568C13.753416046875,12.306472592132568,14.000082046875,12.059804592132569,14.000082046875,11.759805592132569L14.000082046875,3.2798046921325685C14.000082046875,2.9798048921325684,13.753414046875,2.7331379921325683,13.453415046875,2.7331379921325683L10.420082046875,2.7331379921325683C9.453414946875,2.7331379921325683,8.666748046875,3.5198049921325683,8.666748046875,4.486471392132568L8.666748046875,8.726471392132568L7.333415046875,8.726471392132568L7.333415046875,4.486471392132568C7.333415046875,3.5198049921325683,6.546748146875,2.7331379921325683,5.573414846875,2.7331379921325683L2.546748046875,2.7331379921325683Z"
      fill="currentColor" fill-opacity="1"/>
    <path
      d="M5.273355981463623,5.459856417883301L3.453355971463623,5.459856417883301C3.086689171463623,5.459856417883301,2.786689281463623,5.1598565178833,2.786689281463623,4.7931897078833C2.786689281463623,4.4265229078833,3.086689171463623,4.126523017883301,3.453355971463623,4.126523017883301L5.273355981463623,4.126523017883301C5.640022781463623,4.126523017883301,5.940022681463623,4.4265229078833,5.940022681463623,4.7931897078833C5.940022681463623,5.1598565178833,5.640022781463623,5.459856417883301,5.273355981463623,5.459856417883301Z"
      fill="currentColor" fill-opacity="1"/>
    <path
      d="M4.666689381463623,7.579729464758301L3.453355971463623,7.579729464758301C3.086689171463623,7.579729464758301,2.786689281463623,7.2797295647583,2.786689281463623,6.9130627547583C2.786689281463623,6.5463959547583,3.086689171463623,6.246396064758301,3.453355971463623,6.246396064758301L4.666689381463623,6.246396064758301C5.033356181463623,6.246396064758301,5.333356181463623,6.5463959547583,5.333356181463623,6.9130627547583C5.333356181463623,7.2797295647583,5.033356181463623,7.579729464758301,4.666689381463623,7.579729464758301Z"
      fill="currentColor" fill-opacity="1"/>
    <path
      d="M12.546637555712891,5.459856417883301L10.72663754571289,5.459856417883301C10.359970745712891,5.459856417883301,10.05997085571289,5.1598565178833,10.05997085571289,4.7931897078833C10.05997085571289,4.4265229078833,10.359970745712891,4.126523017883301,10.72663754571289,4.126523017883301L12.546637555712891,4.126523017883301C12.91330435571289,4.126523017883301,13.213304255712892,4.4265229078833,13.213304255712892,4.7931897078833C13.213304255712892,5.1598565178833,12.91330435571289,5.459856417883301,12.546637555712891,5.459856417883301Z"
      fill="currentColor" fill-opacity="1"/>
    <path
      d="M12.54666040883789,7.579729464758301L11.33332699883789,7.579729464758301C10.966660198837891,7.579729464758301,10.66666030883789,7.2797295647583,10.66666030883789,6.9130627547583C10.66666030883789,6.5463959547583,10.966660198837891,6.246396064758301,11.33332699883789,6.246396064758301L12.54666040883789,6.246396064758301C12.913327208837892,6.246396064758301,13.21332720883789,6.5463959547583,13.21332720883789,6.9130627547583C13.21332720883789,7.2797295647583,12.913327208837892,7.579729464758301,12.54666040883789,7.579729464758301Z"
      fill="currentColor" fill-opacity="1"/>
  </g>
</svg>