<svg xmlns="http://www.w3.org/2000/svg" xmlns:xlink="http://www.w3.org/1999/xlink" fill="none" version="1.1" width="16"
     height="16" viewBox="0 0 16 16">
  <defs>
    <clipPath id="master_svg0_376_31542">
      <rect x="0" y="0" width="16" height="16" rx="0"/>
    </clipPath>
  </defs>
  <g clip-path="url(#master_svg0_376_31542)">
    <path
      d="M1.3333333730697632,3.3333338730697633L1.3333333730697632,10.000000373069764Q1.3333334128061942,10.828427673069763,1.9191198330697632,11.414213373069764Q2.504906773069763,12.000000373069764,3.333333373069763,12.000000373069764L12.666667373069764,12.000000373069764Q13.495094373069763,12.000000373069764,14.080880373069764,11.414213373069764Q14.666667373069764,10.828425773069764,14.666667373069764,9.999999373069762L14.666667373069764,3.3333335730697633Q14.666667373069764,2.504905573069763,14.080880373069764,1.9191199530697631Q13.495093373069762,1.3333333730697632,12.666667373069764,1.3333333730697632L3.3333335730697633,1.3333333730697632Q2.5049062730697633,1.3333334128061942,1.9191198330697632,1.9191199530697631Q1.3333333730697632,2.5049065730697633,1.3333333730697632,3.3333338730697633ZM2.861928773069763,10.471404473069763Q2.666666773069763,10.276143473069764,2.666666773069763,10.000000373069764L2.666666773069763,3.3333338730697633Q2.666666773069763,3.0571911730697634,2.861929073069763,2.861929073069763Q3.0571909730697633,2.666666773069763,3.3333335730697633,2.666666773069763L12.666667373069764,2.666666773069763Q12.942807373069764,2.666666773069763,13.138070373069763,2.861928773069763Q13.333333373069763,3.057191573069763,13.333333373069763,3.3333335730697633L13.333333373069763,9.999999373069762Q13.333333373069763,10.276141573069763,13.138070373069763,10.471404473069763Q12.942807373069764,10.666667373069764,12.666667373069764,10.666667373069764L3.333333373069763,10.666667373069764Q3.0571911730697634,10.666667373069764,2.861928773069763,10.471404473069763Z"
      fill-rule="evenodd" fill="currentColor" fill-opacity="1"/>
    <path
      d="M2.000000063069763,13.333333969116211L14.000000373069764,13.333333969116211C14.368190373069764,13.333333969116211,14.666667373069764,13.63181078911621,14.666667373069764,14.00000065911621C14.666667373069764,14.36819056911621,14.368190373069764,14.666667369116212,14.000000373069764,14.666667369116212L2.000000063069763,14.666667369116212C1.631810193069763,14.666667369116212,1.3333333730697632,14.36819056911621,1.3333333730697632,14.00000065911621C1.3333333730697632,13.63181078911621,1.631810193069763,13.333333969116211,2.000000063069763,13.333333969116211Z"
      fill-rule="evenodd" fill="currentColor" fill-opacity="1"/>
    <path
      d="M6.135187849227905,5.708150627646484C6.2202982492279055,5.601762767646484,6.266666849227905,5.469576537646485,6.266666849227905,5.333333607646484C6.266666849227905,5.001962717646484,5.998037849227906,4.733333587646484,5.666666749227906,4.733333587646484C5.484396449227905,4.733333587646484,5.312008649227906,4.816187426646485,5.1981453492279055,4.958516567646484L3.8648120592279054,6.625183087646485C3.689507086227905,6.844314287646484,3.689507086227905,7.155686187646484,3.8648120592279054,7.374817387646484L5.197925049227905,9.041208287646484L5.1981453492279055,9.041483887646486C5.312008649227906,9.183813087646485,5.484396449227905,9.266667387646486,5.666666749227906,9.266667387646486C5.998037849227906,9.266667387646486,6.266666849227905,8.998038287646484,6.266666849227905,8.666666987646485C6.266666849227905,8.530424087646484,6.2202982492279055,8.398237987646485,6.135188349227905,8.291850087646484L6.134920849227905,8.291516287646484L5.101708149227905,7.000000487646485L6.135187849227905,5.708150627646484Z"
      fill-rule="evenodd" fill="currentColor" fill-opacity="1"/>
    <path
      d="M14.668520912353515,10.241483452353515C14.753631312353516,10.135095592353515,14.799999912353515,10.002909362353515,14.799999912353515,9.866666432353515C14.799999912353515,9.535295542353516,14.531370912353516,9.266666412353516,14.199999812353516,9.266666412353516C14.017729512353515,9.266666412353516,13.845341712353516,9.349520251353516,13.731478412353516,9.491849392353515L12.398145122353515,11.158515912353515C12.222840149353516,11.377647112353515,12.222840149353516,11.689019012353516,12.398145122353515,11.908150212353515L13.731258112353515,13.574541112353515L13.731478412353516,13.574816712353517C13.845341712353516,13.717145912353516,14.017729512353515,13.800000212353517,14.199999812353516,13.800000212353517C14.531370912353516,13.800000212353517,14.799999912353515,13.531371112353515,14.799999912353515,13.199999812353516C14.799999912353515,13.063756912353515,14.753631312353516,12.931570812353517,14.668521412353515,12.825182912353515L14.668253912353515,12.824849112353515L13.635041212353515,11.533333312353516L14.668520912353515,10.241483452353515Z"
      fill-rule="evenodd" fill="currentColor" fill-opacity="1"
      transform="matrix(-1,0,0,-1,24.53333282470703,18.53333282470703)"/>
    <path
      d="M9.223752987646485,5.556168017646485C9.252101887646484,5.485295767646484,9.266667087646484,5.409665287646485,9.266667087646484,5.333333607646484C9.266667087646484,5.001962717646484,8.998038087646485,4.733333587646484,8.666666987646485,4.733333587646484C8.421324087646484,4.733333587646484,8.200698887646485,4.8827041876464845,8.109580987646485,5.110499207646484L6.776352804646485,8.443569887646484L6.776247583646485,8.443832887646485C6.747898697646485,8.514704687646484,6.733333587646484,8.590335387646483,6.733333587646484,8.666666987646485C6.733333587646484,8.998038287646484,7.001962717646484,9.266667387646486,7.333333607646484,9.266667387646486C7.578676397646484,9.266667387646486,7.799301587646484,9.117296187646485,7.890419687646484,8.889501587646485L7.890524787646484,8.889238387646484L9.223638087646485,5.556455787646485L9.223752987646485,5.556168017646485Z"
      fill-rule="evenodd" fill="currentColor" fill-opacity="1"/>
  </g>
</svg>