<svg xmlns="http://www.w3.org/2000/svg" xmlns:xlink="http://www.w3.org/1999/xlink" fill="none" version="1.1" width="16"
     height="16" viewBox="0 0 16 16">
  <defs>
    <clipPath id="master_svg0_371_32318">
      <rect x="0" y="0" width="16" height="16" rx="0"/>
    </clipPath>
  </defs>
  <g clip-path="url(#master_svg0_371_32318)">
    <path
      d="M13.374777605514526,5.643182486534881C12.298688605514526,6.264461686534881,10.969575605514526,6.050504886534881,10.138131905514527,5.2024580865348815L6.5285151055145265,7.2864705865348816C6.6594903055145265,7.756633986534881,6.6556995055145265,8.246042386534882,6.531104805514526,8.702593486534882L10.088289005514527,10.73517268653488C10.255518705514527,10.563488686534882,10.448864705514527,10.411660886534882,10.666657205514527,10.285917986534882C11.942104605514526,9.549538286534881,13.573013605514527,9.986539586534882,14.309392605514526,11.261987686534882C15.045773605514526,12.537434686534882,14.608772605514526,14.168343686534882,13.333323605514526,14.904722686534882C12.057877605514527,15.641102686534882,10.426968305514526,15.204100686534881,9.690588705514527,13.928654686534882C9.320169205514526,13.287067686534881,9.246658105514527,12.55553868653488,9.427424205514527,11.893167686534882L5.870233805514526,9.860601086534881C5.703005105514526,10.032283486534881,5.5096605055145265,10.18410838653488,5.291869905514527,10.309849486534882C4.016421805514526,11.046230686534882,2.3855134055145264,10.609228786534882,1.6491331455145264,9.333780986534881C0.9127541155145263,8.058334086534881,1.3497544155145265,6.4274255865348815,2.6252023055145264,5.691045486534882C3.7012916055145264,5.0697652865348815,5.030403805514526,5.283722586534882,5.861848605514527,6.131769386534882L9.471464905514527,4.047756886534882C9.152756405514527,2.9036818865348817,9.632021705514527,1.6456574165348816,10.708109605514526,1.0243775265348816C11.983557605514527,0.28799766653488157,13.614466605514526,0.7249983365348815,14.350845605514527,2.0004459865348814C15.087225605514526,3.2758935865348815,14.650225605514526,4.906801886534882,13.374777605514526,5.643182486534881ZM13.196144605514526,2.6671129865348817C13.564335605514527,3.3048364865348816,13.345834605514526,4.120290886534882,12.708111605514526,4.488480786534882C12.070386605514527,4.856670586534881,11.254933105514526,4.638170386534881,10.886743305514527,4.000446486534882C10.518553505514527,3.3627227865348814,10.737053605514527,2.547268586534882,11.374777605514526,2.179078686534882C12.012501605514526,1.8108886865348817,12.827954605514526,2.0293890865348816,13.196144605514526,2.6671129865348817ZM12.666657605514526,13.75002168653488C13.304381605514527,13.381830686534881,13.522881605514526,12.566377686534882,13.154691605514527,11.928654686534882C12.786501605514527,11.29092968653488,11.971048605514527,11.07242868653488,11.333324605514527,11.440618686534881C10.695601205514526,11.808808686534881,10.477101105514526,12.624262686534882,10.845289905514527,13.261987686534882C11.213479805514526,13.899710686534881,12.028933605514526,14.118211686534881,12.666657605514526,13.75002168653488ZM4.625202905514526,9.155148186534882C5.262926305514526,8.786959386534882,5.481426905514526,7.971504386534882,5.113236905514526,7.333780986534881C4.745047305514527,6.696056986534882,3.9295924055145264,6.477556886534882,3.2918689055145265,6.8457466865348815C2.6541457055145266,7.2139359865348816,2.4356449055145264,8.029390486534883,2.803834405514526,8.66711488653488C3.1720245055145266,9.304837886534882,3.9874797055145264,9.523337986534882,4.625202905514526,9.155148186534882Z"
      fill-rule="evenodd" fill="currentColor" fill-opacity="1"/>
  </g>
</svg>