<svg xmlns="http://www.w3.org/2000/svg" xmlns:xlink="http://www.w3.org/1999/xlink" fill="none" version="1.1" width="16"
     height="16" viewBox="0 0 16 16">
  <defs>
    <clipPath id="master_svg0_371_33334">
      <rect x="0" y="0" width="16" height="16" rx="0"/>
    </clipPath>
  </defs>
  <g clip-path="url(#master_svg0_371_33334)">
    <path
      d="M1.3333333730697632,3.3333338730697633L1.3333333730697632,10.000000373069764Q1.3333334128061942,10.828427673069763,1.9191198330697632,11.414213373069764Q2.504906773069763,12.000000373069764,3.333333373069763,12.000000373069764L12.666667373069764,12.000000373069764Q13.495094373069763,12.000000373069764,14.080880373069764,11.414213373069764Q14.666667373069764,10.828425773069764,14.666667373069764,9.999999373069762L14.666667373069764,3.3333335730697633Q14.666667373069764,2.504905573069763,14.080880373069764,1.9191199530697631Q13.495093373069762,1.3333333730697632,12.666667373069764,1.3333333730697632L3.3333335730697633,1.3333333730697632Q2.5049062730697633,1.3333334128061942,1.9191198330697632,1.9191199530697631Q1.3333333730697632,2.5049065730697633,1.3333333730697632,3.3333338730697633ZM2.861928773069763,10.471404473069763Q2.666666773069763,10.276143473069764,2.666666773069763,10.000000373069764L2.666666773069763,3.3333338730697633Q2.666666773069763,3.0571911730697634,2.861929073069763,2.861929073069763Q3.0571909730697633,2.666666773069763,3.3333335730697633,2.666666773069763L12.666667373069764,2.666666773069763Q12.942807373069764,2.666666773069763,13.138070373069763,2.861928773069763Q13.333333373069763,3.057191573069763,13.333333373069763,3.3333335730697633L13.333333373069763,9.999999373069762Q13.333333373069763,10.276141573069763,13.138070373069763,10.471404473069763Q12.942807373069764,10.666667373069764,12.666667373069764,10.666667373069764L3.333333373069763,10.666667373069764Q3.0571911730697634,10.666667373069764,2.861928773069763,10.471404473069763Z"
      fill-rule="evenodd" fill="currentColor" fill-opacity="1"/>
    <path
      d="M2.000000063069763,13.333333969116211L14.000000373069764,13.333333969116211C14.368190373069764,13.333333969116211,14.666667373069764,13.63181078911621,14.666667373069764,14.00000065911621C14.666667373069764,14.36819056911621,14.368190373069764,14.666667369116212,14.000000373069764,14.666667369116212L2.000000063069763,14.666667369116212C1.631810193069763,14.666667369116212,1.3333333730697632,14.36819056911621,1.3333333730697632,14.00000065911621C1.3333333730697632,13.63181078911621,1.631810193069763,13.333333969116211,2.000000063069763,13.333333969116211Z"
      fill-rule="evenodd" fill="currentColor" fill-opacity="1"/>
    <path
      d="M11.226698884558106,5.1055646C11.296230284558106,4.98875213,11.333333984558106,4.8515023,11.333333984558106,4.7111111900000004C11.333333984558106,4.31837529,11.049070384558107,4,10.698412884558106,4C10.486124984558106,4,10.287883784558105,4.11882748,10.170126884558105,4.31665766L8.737043384558106,6.7242391L7.694109484558105,5.3225356C7.469624284558106,5.0208275,7.069265584558106,4.9800638,6.799883384558106,5.2314872999999995C6.762030084558106,5.266817,6.727977484558105,5.3069618,6.698413084558105,5.3511112L4.793765364558105,8.1953855C4.711224391558106,8.3186464,4.6666669845581055,8.4683595,4.6666669845581055,8.6222229C4.6666669845581055,9.014958400000001,4.950930624558105,9.3333335,5.301587644558105,9.3333335C5.501433554558106,9.3333335,5.689616684558105,9.227951000000001,5.809524184558105,9.0488892L7.2325691845581055,6.9238086L8.305891784558106,8.366354000000001C8.344987384558106,8.4188986,8.390647684558106,8.4648514,8.441460384558106,8.5027919C8.733224884558105,8.7206426,9.127427584558106,8.632340899999999,9.321937084558105,8.3055649L11.226698884558106,5.1055646Z"
      fill-rule="evenodd" fill="currentColor" fill-opacity="1"/>
  </g>
</svg>