<svg xmlns="http://www.w3.org/2000/svg" xmlns:xlink="http://www.w3.org/1999/xlink" fill="none" version="1.1" width="16"
     height="16" viewBox="0 0 16 16">
  <defs>
    <clipPath id="master_svg0_371_33735">
      <rect x="0" y="0" width="16" height="16" rx="0"/>
    </clipPath>
  </defs>
  <g clip-path="url(#master_svg0_371_33735)">
    <g>
      <path
        d="M9.333332493200682,14.006591953125L6.666665793200684,14.006591953125C6.266665493200684,14.006591953125,5.9999990932006835,14.271931953125,5.9999990932006835,14.669941953125C5.9999990932006835,15.067951953125,6.266665493200684,15.333291953125,6.666665793200684,15.333291953125L9.333332493200682,15.333291953125C9.733332593200684,15.333291953125,9.999999093200683,15.067951953125,9.999999093200683,14.669941953125C9.999999093200683,14.271931953125,9.733332593200684,14.006591953125,9.333332493200682,14.006591953125ZM12.495043793200683,9.523287753125Q11.792151493200684,10.622339253125,10.666748093200683,11.285312653125L10.666748093200683,11.353152953125Q10.666748093200683,12.177533953125,10.078641893200682,12.762712953125Q9.491916693200682,13.346519953125,8.666748093200685,13.346519953125L7.333414593200684,13.346519953125Q6.508244493200683,13.346519953125,5.9215199932006835,12.762712953125Q5.333414593200684,12.177534953125,5.333414593200684,11.353152953125L5.333414593200684,11.232360853125Q4.213741093200683,10.610430753125,3.5069927532006835,9.517910053125Q2.6667477289835837,8.219024653125,2.6667470932006836,6.643368753125Q2.6667471726735457,4.425953653125,4.221520193200684,2.878916153125Q5.7749118932006835,1.33325242996216,8.000078693200685,1.333251953125Q10.225249293200683,1.33325219154358,11.778640793200683,2.8789160531249998Q13.333413093200683,4.425953653125,13.333413093200683,6.643370653125Q13.333414093200684,8.212403253125,12.495043793200683,9.523287753125ZM9.703127393200685,10.291932153125Q10.755663893200683,9.768281953125,11.371784193200684,8.804911653125Q12.000080093200683,7.822501153125,12.000081093200684,6.643370653125Q12.000081093200684,4.980186453125,10.838186293200684,3.824073353125Q9.674910093200683,2.666585453125,8.000078693200685,2.666585353125Q6.325249393200684,2.666585753125,5.161974893200684,3.824073353125Q4.000080393200683,4.980187153125,4.0000804932006835,6.643368753125Q4.000080893200684,7.825355553125,4.626502493200683,8.793704053125001Q5.240955093200684,9.743550253125,6.276707393200684,10.215908053125L6.666748093200684,10.393786453125L6.666748093200684,11.353152953125Q6.666748093200684,11.623300953125,6.861975693200684,11.817555953125Q7.058584193200684,12.013186953125,7.333414593200684,12.013186953125L8.666748093200685,12.013186953125Q8.941577893200684,12.013186953125,9.138186493200685,11.817555953125Q9.333414093200684,11.623300953125,9.333414093200684,11.353152953125L9.333414093200684,10.475869153125L9.703127393200685,10.291932153125Z"
        fill-rule="evenodd" fill="currentColor" fill-opacity="1"/>
    </g>
  </g>
</svg>