<svg xmlns="http://www.w3.org/2000/svg" xmlns:xlink="http://www.w3.org/1999/xlink" fill="none" version="1.1" width="16"
     height="16" viewBox="0 0 16 16">
  <defs>
    <clipPath id="master_svg0_371_33711">
      <rect x="0" y="0" width="16" height="16" rx="0"/>
    </clipPath>
  </defs>
  <g clip-path="url(#master_svg0_371_33711)">
    <g>
      <path
        d="M1.9392437889208984,3.900851257525635L4.259239718920899,2.6838464575256347L6.749961418920899,1.3772845275256347Q7.331814718920898,1.0720605850256348,7.983623518920899,1.0665338039396348Q8.646468618920899,1.0609135627256348,9.228784518920898,1.3667774175256349L11.7630525189209,2.6979145575256345L14.097927518920898,3.9243187575256346Q14.812427518920899,4.299612057525635,14.813114518920898,5.097911857525634Q14.813804518920898,5.900146057525634,14.0941825189209,6.2723355575256345L11.759307518920899,7.4799351575256345L9.225040418920898,8.790662257525636Q8.645177318920897,9.090567157525635,8.0011816189209,9.089528557525634Q7.355563618920899,9.088486157525635,6.777359018920898,8.785177757525634L4.259239418920899,7.464248157525635L1.9392447489208986,6.247249157525634Q1.2252922058108984,5.872729757525635,1.2252922058108984,5.074050457525635Q1.2252917289728984,4.275369657525635,1.9392437889208984,3.900851257525635ZM4.878619718920898,6.2835087575256345L2.5729985189208984,5.074049957525634L4.878622318920899,3.864584457525635L7.369343318920898,2.558022957525635Q7.999783518920898,2.227311657525635,8.608770818920899,2.547184457525635L11.143038718920899,3.878321157525635L13.463750518920898,5.097286657525634L11.1467819189209,6.295626157525635L8.612515018920899,7.606352357525635Q8.002164318920897,7.922026157525635,7.396739018920899,7.604438257525635L4.878619718920898,6.2835087575256345ZM2.3624501189208984,8.143253357525634L2.3628783189208984,8.143465957525635L5.328952318920899,9.609756957525635L7.409786718920898,10.638424357525635Q8.000010018920898,10.930204857525634,8.590230918920899,10.638424357525635L10.671056718920898,9.609749357525635L13.6375445189209,8.143239957525635C13.882691518920899,8.022050357525636,14.176984518920898,8.062860457525634,14.379902518920899,8.246184857525634C14.388261518920899,8.253735557525633,14.396427518920898,8.261498457525635,14.404394518920899,8.269464457525634C14.4557765189209,8.320847557525635,14.498411518920898,8.380284357525635,14.530614518920899,8.445425557525635C14.608970518920898,8.603925257525635,14.621153518920899,8.787062157525636,14.564482518920899,8.954544557525635C14.532842518920898,9.048054657525634,14.480829518920899,9.133369957525634,14.412200518920898,9.204330957525634L14.404392518920899,9.212272157525634C14.3530095189209,9.263655157525635,14.2935715189209,9.306292057525635,14.228429518920898,9.338493857525634L11.261942518920899,10.805003657525635L9.1811166189209,11.833679557525635Q8.0000148189209,12.417566557525635,6.818907718920898,11.833681557525635L4.738072418920899,10.805013157525634L1.7719984089208984,9.338721757525635L1.7715697289208985,9.338509057525634C1.7080583589208984,9.307113157525635,1.6499581289208984,9.265793357525634,1.5994558289208984,9.216105957525635L1.5956053689208984,9.212286457525634C1.5231428189208984,9.139823457525635,1.4683608989208985,9.051631457525634,1.4355144489208984,8.954561757525635C1.3788433089208985,8.787078357525635,1.3910255389208985,8.603942357525636,1.4693808589208985,8.445442157525635C1.4992866489208985,8.384947257525635,1.5382046689208984,8.329343757525635,1.5848031089208985,8.280532857525635L1.5956053689208984,8.269476857525635C1.7977266289208984,8.067355657525635,2.1062078489208984,8.016579157525634,2.3624501189208984,8.143253357525634ZM2.3624496189208983,11.143252557525635L5.328944218920898,12.609748557525634L7.409773818920899,13.638411557525634Q7.999995718920898,13.930191557525635,8.5902176189209,13.638410557525635L10.671043418920899,12.609734557525634L13.637529518920898,11.143225557525636C13.882675518920898,11.022034157525635,14.176970518920898,11.062845657525635,14.379888518920898,11.246170557525634C14.388246518920898,11.253720557525634,14.396412518920899,11.261483557525635,14.404378518920899,11.269449557525634C14.455760518920899,11.320831557525635,14.498396518920899,11.380269557525635,14.530599518920898,11.445410557525635C14.608955518920899,11.603910557525635,14.621137518920898,11.787044557525634,14.564467518920898,11.954529557525635C14.532827518920898,12.048038557525635,14.480815518920899,12.133354557525635,14.412187518920899,12.204315557525634L14.404376518920898,12.212257557525636C14.352994518920898,12.263639557525634,14.293556518920898,12.306276557525635,14.228414518920898,12.338479557525634L11.261928518920898,13.804988557525634L9.181101818920897,14.833664557525635Q7.999997618920898,15.417551557525634,6.818895818920899,14.833670557525634L4.738065218920898,13.805006557525635L1.7715702089208984,12.338509557525635C1.7080588389208984,12.307114557525635,1.6499586089208984,12.265794557525634,1.5994563089208984,12.216106557525634L1.5956053689208984,12.212286557525635C1.5231432889208985,12.139824557525635,1.4683613789208985,12.051632557525634,1.4355153989208984,11.954561557525635C1.3788437889208984,11.787079557525635,1.3910260189208985,11.603943557525636,1.4693808589208985,11.445442557525634C1.4992866489208985,11.384947557525635,1.5382037189208984,11.329344557525635,1.5848021489208985,11.280533557525635L1.5956053689208984,11.269476557525635C1.7977266289208984,11.067355557525635,2.1062073689208987,11.016579157525635,2.3624496189208983,11.143252557525635Z"
        fill-rule="evenodd" fill="currentColor" fill-opacity="1"/>
    </g>
  </g>
</svg>