<svg xmlns="http://www.w3.org/2000/svg" xmlns:xlink="http://www.w3.org/1999/xlink" fill="none" version="1.1" width="16"
     height="16" viewBox="0 0 16 16">
  <defs>
    <clipPath id="master_svg0_394_31897">
      <rect x="0" y="0" width="16" height="16" rx="0"/>
    </clipPath>
  </defs>
  <g clip-path="url(#master_svg0_394_31897)">
    <g>
      <path
        d="M8.403142923712158,1.036469581204071C8.165351823712157,0.538068555204071,7.568582023712159,0.326759431204071,7.070142723712158,0.564469516204071L7.070142723712158,0.563469827204071L6.954143023712159,0.6294698112040711C6.805618723712159,0.726318631204071,6.685515923712158,0.8609167312040711,6.606142523712158,1.0194698612040711L5.014142523712159,4.2004698912040705L1.5371427537121582,4.654469691204071C0.9900191737121582,4.726045791204071,0.6042668817121583,5.227255091204071,0.6751428451121582,5.774469991204071L0.7001428607121583,5.904469691204071C0.7455120087121582,6.074299491204071,0.8348464937121582,6.229169091204071,0.9591428637121582,6.353469991204071L3.464143023712158,8.859469591204071L2.8571429237121584,12.353470691204071C2.7628584237121583,12.89743669120407,3.1272282237121583,13.414895691204071,3.671142623712158,13.509469691204071L3.8011429237121583,13.52346969120407C3.9764752237121583,13.530764691204071,4.150640523712158,13.49179269120407,4.306142823712158,13.41046969120407L7.505142723712158,11.73446969120407L10.601143323712158,13.394468691204072C11.087708523712157,13.655667691204071,11.693892523712158,13.473006691204072,11.955143523712158,12.98646869120407L12.010143523712157,12.86446869120407C12.072612523712158,12.697923691204071,12.089526523712157,12.517729691204071,12.059143523712159,12.342469691204071L11.453143523712159,8.858468191204071L13.959144523712158,6.353468591204071C14.350192523712158,5.962854591204071,14.350192523712158,5.329083191204071,13.959144523712158,4.938469091204071L13.860144523712158,4.852469191204071C13.720653523712159,4.745518891204071,13.555437523712158,4.6772252912040715,13.381144523712159,4.654469191204071L9.910143423712158,4.201469391204071L8.403142923712158,1.036469581204071ZM5.946142623712158,5.022469691204071L7.496142823712158,1.922469291204071L8.968143923712159,5.012470891204071L9.108143323712158,5.307470991204071L9.431143323712158,5.349470791204071L12.823143523712158,5.791470691204071L10.385143723712158,8.23047079120407L10.165143523712159,8.45047059120407L10.217142623712158,8.75747029120407L10.807142523712159,12.142470691204071L7.792142823712158,10.525469691204071L7.512142623712158,10.37546939120407L7.231142523712158,10.523468691204071L4.108142823712158,12.15846969120407L4.700143323712158,8.75746939120407L4.7541427237121585,8.450469191204071L4.534142723712158,8.230469391204071L2.0941427237121584,5.791469791204071L5.4871425237121585,5.349469391204071L5.803142523712158,5.308469991204071L5.946142623712158,5.022469691204071ZM13.141697523712159,9.325148791204072C13.394980523712158,9.071865291204071,13.821199523712158,9.06889549120407,14.081553523712158,9.329249591204071L15.144622523712158,10.39231799120407C15.404976523712158,10.65267269120407,15.402006523712158,11.07889169120407,15.141651523712158,11.339245691204072C14.888369523712159,11.59252969120407,14.462150523712157,11.59549969120407,14.201796523712158,11.335144691204071L13.138727523712157,10.272076791204071C12.878372523712159,10.01172179120407,12.881343523712157,9.585502791204071,13.141697523712159,9.325148791204072ZM12.474997523712158,13.325128691204071L12.485602523712158,13.31452269120407C12.745960523712158,13.054148691204071,13.154489523712158,13.06886069120407,13.414849523712158,13.329232691204071L14.477927523712157,14.392353691204072C14.738273523712158,14.65270869120407,14.735312523712158,15.078951691204072,14.474961523712158,15.339303691204071L14.464356523712159,15.349907691204072C14.203999523712158,15.610265691204072,13.795458523712158,15.595549691204072,13.535105523712158,15.33518869120407L12.472036523712157,14.272089691204071C12.211692523712157,14.011737691204072,12.214657523712159,13.585484691204071,12.474997523712158,13.325128691204071ZM7.141697423712158,13.32514869120407C7.394980423712158,13.07186569120407,7.821199423712158,13.068895691204071,8.081553923712157,13.32924969120407L9.144622323712158,14.39231769120407C9.404976323712159,14.65267269120407,9.402006623712158,15.07889169120407,9.141651623712159,15.339245691204072C8.888369123712158,15.59252969120407,8.462150123712158,15.59549969120407,8.201795623712158,15.335144691204071L7.138727223712158,14.27207669120407C6.878373123712159,14.011721691204071,6.881342923712158,13.585502691204072,7.141697423712158,13.32514869120407Z"
        fill-rule="evenodd" fill="currentColor" fill-opacity="1"/>
    </g>
  </g>
</svg>