<svg xmlns="http://www.w3.org/2000/svg" xmlns:xlink="http://www.w3.org/1999/xlink" fill="none" version="1.1" width="16"
     height="16" viewBox="0 0 16 16">
  <defs>
    <clipPath id="master_svg0_371_31585">
      <rect x="0" y="0" width="16" height="16" rx="0"/>
    </clipPath>
  </defs>
  <g clip-path="url(#master_svg0_371_31585)">
    <path
      d="M13.699133238418579,13.69687488079071Q14.33333423841858,13.060801880790711,14.33333423841858,12.14295088079071Q14.33333423841858,11.225100880790711,13.699133238418579,10.58903018079071Q13.064547238418578,9.95257078079071,12.14846223841858,9.952567980790711Q11.61799023841858,9.952567980790711,11.15464023841858,10.17817488079071L9.38757923841858,8.468085680790711Q9.851541738418579,7.733065980790711,9.851541738418579,6.89876828079071Q9.851541738418579,6.101432680790711,9.45173003841858,5.4350427807907105L10.355918138418579,4.473227380790711Q10.735297438418579,4.63159598079071,11.028013238418579,4.63159598079071Q11.77602823841858,4.6315961807907104,12.30791123841858,4.09814678079071Q12.839405238418578,3.5650847807907105,12.839405238418578,2.8157981807907104Q12.83940423841858,2.0665111807907106,12.30791123841858,1.5334494107907104Q11.776031238418579,0.9999998807907104,11.028013238418579,0.9999998807907104Q10.279996138418579,0.9999998807907104,9.74811573841858,1.5334494707907105Q9.216621638418578,2.0665111807907106,9.216621638418578,2.81579808079071Q9.216621638418578,3.1910353807907104,9.36789153841858,3.5166362807907103L8.49630383841858,4.44377358079071Q7.822864338418579,3.9592166807907105,6.919702338418579,3.9592166807907105Q5.977709038418579,3.9592166807907105,5.220648038418579,4.49683538079071L4.49885673841858,3.8228405807907104Q4.62278343841858,3.4900930807907105,4.62278343841858,3.1529241807907105Q4.622782938418579,2.40363718079071,4.091289238418579,1.8705755507907105Q3.559408938418579,1.3371259907907105,2.811391938418579,1.3371259907907105Q2.063375038418579,1.3371259907907105,1.5314942584185791,1.8705754907907104Q1.000000238418579,2.40363718079071,1.000000238418579,3.1529241807907105Q1.000000238418579,3.9022108807907103,1.5314942584185791,4.435272580790711Q2.063374838418579,4.96872218079071,2.811391938418579,4.96872218079071Q3.216804738418579,4.96872218079071,3.551100538418579,4.814456380790711L4.340497238418579,5.52956328079071Q3.9878633384185793,6.142443580790711,3.9878625384185793,6.89876828079071Q3.9878625384185793,7.8594768807907105,4.552957538418579,8.60754338079071L4.132456038418579,9.04936878079071Q3.679642938418579,8.82881488079071,3.184874338418579,8.82881488079071Q2.268789538418579,8.82881488079071,1.6342019484185792,9.46527468079071Q1.000000238418579,10.101346880790711,1.000000238418579,11.01919688079071Q1.000000238418579,11.93704888079071,1.6342017084185791,12.57311888079071Q2.2687896384185793,13.20958188079071,3.184874338418579,13.20957888079071Q4.100958538418579,13.20957888079071,4.735546838418579,12.57311888079071Q5.369747838418579,11.937047880790711,5.369748338418579,11.01919688079071Q5.369748838418579,10.45682318079071,5.115564538418579,10.00319948079071L5.562879338418579,9.511838780790711Q6.185417438418579,9.838320580790711,6.882353038418579,9.838320580790711Q7.676795738418579,9.838320580790711,8.34085103841858,9.43831048079071L10.16046163841858,11.16889388079071Q9.963587038418579,11.65329988079071,9.963587038418579,12.14295088079071Q9.963587038418579,13.06079888079071,10.59778813841858,13.69687488079071Q11.23237623841858,14.333333880790711,12.14846223841858,14.333333880790711Q13.064544238418579,14.333333880790711,13.699133238418579,13.69687488079071ZM11.02801223841858,3.2100482807907103Q10.59850713841858,3.2100482807907103,10.59850713841858,2.7783395807907105Q10.59850713841858,2.3466311807907108,11.02801223841858,2.3466311807907108Q11.204365238418578,2.3466311807907108,11.33074723841858,2.4733864807907104Q11.457517238418578,2.6005304807907104,11.457517238418578,2.7783395807907105Q11.457517238418578,3.2100482807907103,11.02801223841858,3.2100482807907103ZM3.240896738418579,3.1529239807907103Q3.240896738418579,3.5846322807907103,2.811391338418579,3.5846322807907103Q2.381886238418579,3.5846322807907103,2.381886038418579,3.1529236807907104Q2.381886138418579,2.7212153807907105,2.811391338418579,2.7212153807907105Q3.240896738418579,2.7212153807907105,3.240896738418579,3.1529239807907103ZM8.020756938418579,5.793140280790711Q8.46965623841858,6.24336418079071,8.469655738418579,6.89876828079071Q8.469655738418579,7.554171880790711,8.020756938418579,8.00439438079071Q7.572245838418579,8.45422878079071,6.919702338418579,8.45423018079071Q6.267158238418579,8.45423018079071,5.8186466384185795,8.00439438079071Q5.369748838418579,7.55417238079071,5.369748338418579,6.89876828079071Q5.369748338418579,6.24336328079071,5.8186466384185795,5.793140280790711Q6.267158238418579,5.34330638079071,6.919702338418579,5.343305980790711Q7.572245838418579,5.34330638079071,8.020756938418579,5.793140280790711ZM3.9303972384185792,10.68376628079071Q3.987861838418579,10.82699768079071,3.987861838418579,11.019195880790711Q3.987862338418579,11.36556988079071,3.758384738418579,11.59572288079071Q3.529293738418579,11.82548888079071,3.184873838418579,11.82548888079071Q2.381886138418579,11.82548888079071,2.381886138418579,11.019195880790711Q2.381886138418579,10.212901980790711,3.184873838418579,10.212901980790711Q3.349064138418579,10.212901980790711,3.490437238418579,10.274026780790711L3.9303972384185792,10.68376628079071ZM12.721972238418578,11.56642188079071Q12.95144923841858,11.79657588079071,12.95144923841858,12.142947880790711Q12.951448238418578,12.949240880790711,12.14846223841858,12.94924388079071Q11.345472238418578,12.94924388079071,11.345472238418578,12.142947880790711Q11.345472238418578,11.79657588079071,11.574950238418579,11.56642188079071Q11.80404223841858,11.33665488079071,12.14846223841858,11.33665488079071Q12.492882238418579,11.33665488079071,12.721972238418578,11.56642188079071Z"
      fill-rule="evenodd" fill="currentColor" fill-opacity="1"/>
  </g>
</svg>