<svg xmlns="http://www.w3.org/2000/svg" xmlns:xlink="http://www.w3.org/1999/xlink" fill="none" version="1.1" width="16"
     height="16" viewBox="0 0 16 16">
  <defs>
    <clipPath id="master_svg0_376_31428">
      <rect x="0" y="0" width="16" height="16" rx="0"/>
    </clipPath>
  </defs>
  <g clip-path="url(#master_svg0_376_31428)">
    <path
      d="M0,11.333333674558105C0,10.965143804558105,0.29847682,10.666666984558105,0.66666669,10.666666984558105L2.6666667,10.666666984558105C3.0348568,10.666666984558105,3.3333335,10.965143804558105,3.3333335,11.333333674558105C3.3333335,11.701523584558105,3.0348568,12.000000384558106,2.6666667,12.000000384558106L0.66666669,12.000000384558106C0.29847682,12.000000384558106,0,11.701523584558105,0,11.333333674558105Z"
      fill="currentColor" fill-opacity="1" transform="matrix(0,-1,1,0,-10.666666984558105,10.666666984558105)"/>
    <path
      d="M5.821370601654053,2.6667074595770264C5.821370601654053,2.2985175895770262,6.119847421654053,2.0000407695770264,6.488037291654052,2.0000407695770264L8.488037301654053,2.0000407695770264C8.856227401654053,2.0000407695770264,9.154704101654053,2.2985175895770262,9.154704101654053,2.6667074595770264C9.154704101654053,3.0348973695770263,8.856227401654053,3.3333741695770263,8.488037301654053,3.3333741695770263L6.488037291654052,3.3333741695770263C6.119847421654053,3.3333741695770263,5.821370601654053,3.0348973695770263,5.821370601654053,2.6667074595770264Z"
      fill="currentColor" fill-opacity="1"
      transform="matrix(0.4999999403953552,0.866025447845459,-0.866025447845459,0.4999999403953552,4.642771850989874,-4.041434578371607)"/>
    <path
      d="M9.666666984558105,6.220092955716552C9.666666984558105,5.851903085716553,9.965143804558105,5.553426265716553,10.333333674558105,5.553426265716553L12.333333684558106,5.553426265716553C12.701523784558105,5.553426265716553,13.000000484558106,5.851903085716553,13.000000484558106,6.220092955716552C13.000000484558106,6.588282865716552,12.701523784558105,6.886759665716553,12.333333684558106,6.886759665716553L10.333333674558105,6.886759665716553C9.965143804558105,6.886759665716553,9.666666984558105,6.588282865716552,9.666666984558105,6.220092955716552Z"
      fill="currentColor" fill-opacity="1"
      transform="matrix(0.4999999701976776,-0.866025447845459,-0.866025447845459,-0.4999999701976776,9.642742249212091,16.701718837544675)"/>
    <path
      d="M14.666666984558105,11.333333674558105C14.666666984558105,10.965143804558105,14.965143804558105,10.666666984558105,15.333333674558105,10.666666984558105L17.333333684558106,10.666666984558105C17.701523784558105,10.666666984558105,18.000000484558107,10.965143804558105,18.000000484558107,11.333333674558105C18.000000484558107,11.701523584558105,17.701523784558105,12.000000384558106,17.333333684558106,12.000000384558106L15.333333674558105,12.000000384558106C14.965143804558105,12.000000384558106,14.666666984558105,11.701523584558105,14.666666984558105,11.333333674558105Z"
      fill="currentColor" fill-opacity="1" transform="matrix(0,-1,1,0,4,25.33333396911621)"/>
    <path
      d="M2,11.9979248L2,6.0020752Q1.9999914169312,5.1751941,2.57596844,4.59041345Q3.1575001,4.000010172595,3.9875081999999997,4.0000000000335465L12.012492,4.0000000000335465Q12.842513,3.9999955495532,13.424032,4.59041345Q14,5.1751989,14,6.0020752L14,11.9979248Q14,12.8248043,13.424032,13.4095869Q12.84251,13.9999943,12.012492,14L3.9875081999999997,14Q3.1575012,14,2.57596844,13.4095869Q1.999990940094,12.8248081,2,11.9979248ZM3.3333334,11.9979248Q3.3333334,12.27843,3.5258993,12.473959Q3.7157043,12.6666641,3.9875081999999997,12.666667L12.012492,12.666667Q12.284285,12.666667,12.474081,12.473959Q12.666656,12.2784386,12.666667,11.9979248L12.666667,6.0020752Q12.666658,5.7215729,12.474081,5.5260417Q12.284281,5.3333334,12.012492,5.3333334L3.9875081999999997,5.3333334Q3.7157042000000002,5.3333358,3.5258993,5.5260417Q3.3333334,5.7215585,3.3333334,6.0020752L3.3333334,10L3.3333334,11.9979248Z"
      fill-rule="evenodd" fill="currentColor" fill-opacity="1"/>
    <ellipse cx="5.6666669845581055" cy="9" rx="1" ry="1" fill="currentColor" fill-opacity="1"/>
    <ellipse cx="10.333333969116211" cy="9" rx="1" ry="1" fill="currentColor" fill-opacity="1"/>
  </g>
</svg>