<svg xmlns="http://www.w3.org/2000/svg" xmlns:xlink="http://www.w3.org/1999/xlink" fill="none" version="1.1" width="16"
     height="16" viewBox="0 0 16 16">
  <path
    d="M1.333251953125,3.1110293531249997C1.333251953125,2.129189433125,2.129190443125,1.333251953125,3.1110298531250002,1.333251953125C3.1110298531250002,1.333251953125,5.774441253125,1.333251953125,5.774441253125,1.333251953125C6.756280853125,1.333251953125,7.552218953125,2.129190443125,7.552218953125,3.1110298531250002C7.552218953125,3.1110298531250002,7.552218953125,5.774441253125,7.552218953125,5.774441253125C7.552218953125,6.756280853125,6.756280453125,7.552218953125,5.774440753125,7.552218953125C5.774440753125,7.552218953125,3.1110293531249997,7.552218953125,3.1110293531249997,7.552218953125C2.129189433125,7.552218953125,1.333251953125,6.756280453125,1.333251953125,5.774440753125C1.333251953125,5.774440753125,1.333251953125,3.1110293531249997,1.333251953125,3.1110293531249997ZM3.1110298531250002,2.603093353125C2.830503953125,2.603093353125,2.603093353125,2.830504153125,2.603093353125,3.1110293531249997C2.603093353125,3.1110293531249997,2.603093353125,5.774440753125,2.603093353125,5.774440753125C2.603093353125,6.054966453125,2.830504153125,6.282377253125,3.1110293531249997,6.282377253125C3.1110293531249997,6.282377253125,5.774440753125,6.282377253125,5.774440753125,6.282377253125C6.054966453125,6.282377253125,6.282377253125,6.054966453125,6.282377253125,5.774441253125C6.282377253125,5.774441253125,6.282377253125,3.1110298531250002,6.282377253125,3.1110298531250002C6.282377253125,2.830503953125,6.054966453125,2.603093353125,5.774441253125,2.603093353125C5.774441253125,2.603093353125,3.1110298531250002,2.603093353125,3.1110298531250002,2.603093353125Z"
    fill-rule="evenodd" fill="currentColor" fill-opacity="1"/>
  <path
    d="M1.333251953125,10.22553130625C1.333251953125,9.24369138625,2.129190443125,8.44775390625,3.1110298531250002,8.44775390625C3.1110298531250002,8.44775390625,5.774441253125,8.44775390625,5.774441253125,8.44775390625C6.756280853125,8.44775390625,7.552218953125,9.24369239625,7.552218953125,10.22553180625C7.552218953125,10.22553180625,7.552218953125,12.88894320625,7.552218953125,12.88894320625C7.552218953125,13.87078280625,6.756280453125,14.66672090625,5.774440753125,14.66672090625C5.774440753125,14.66672090625,3.1110293531249997,14.66672090625,3.1110293531249997,14.66672090625C2.129189433125,14.66672090625,1.333251953125,13.870782406250001,1.333251953125,12.888942706249999C1.333251953125,12.888942706249999,1.333251953125,10.22553130625,1.333251953125,10.22553130625ZM3.1110298531250002,9.71759530625C2.830503953125,9.71759530625,2.603093353125,9.94500610625,2.603093353125,10.22553130625C2.603093353125,10.22553130625,2.603093353125,12.888942706249999,2.603093353125,12.888942706249999C2.603093353125,13.169468406250001,2.830504153125,13.39687920625,3.1110293531249997,13.39687920625C3.1110293531249997,13.39687920625,5.774440753125,13.39687920625,5.774440753125,13.39687920625C6.054966453125,13.39687920625,6.282377253125,13.169468406250001,6.282377253125,12.88894320625C6.282377253125,12.88894320625,6.282377253125,10.22553180625,6.282377253125,10.22553180625C6.282377253125,9.94500590625,6.054966453125,9.71759530625,5.774441253125,9.71759530625C5.774441253125,9.71759530625,3.1110298531250002,9.71759530625,3.1110298531250002,9.71759530625Z"
    fill-rule="evenodd" fill="currentColor" fill-opacity="1"/>
  <path
    d="M8.44677734375,10.22553130625C8.44677734375,9.24369138625,9.24271583375,8.44775390625,10.22455524375,8.44775390625C10.22455524375,8.44775390625,12.88796664375,8.44775390625,12.88796664375,8.44775390625C13.86980624375,8.44775390625,14.66574434375,9.24369239625,14.66574434375,10.22553180625C14.66574434375,10.22553180625,14.66574434375,12.88894320625,14.66574434375,12.88894320625C14.66574434375,13.87078280625,13.869805843750001,14.66672090625,12.887966143749999,14.66672090625C12.887966143749999,14.66672090625,10.22455474375,14.66672090625,10.22455474375,14.66672090625C9.24271482375,14.66672090625,8.44677734375,13.870782406250001,8.44677734375,12.888942706249999C8.44677734375,12.888942706249999,8.44677734375,10.22553130625,8.44677734375,10.22553130625ZM10.22455524375,9.71759530625C9.94402934375,9.71759530625,9.71661874375,9.94500610625,9.71661874375,10.22553130625C9.71661874375,10.22553130625,9.71661874375,12.888942706249999,9.71661874375,12.888942706249999C9.71661874375,13.169468406250001,9.94402954375,13.39687920625,10.22455474375,13.39687920625C10.22455474375,13.39687920625,12.887966143749999,13.39687920625,12.887966143749999,13.39687920625C13.168491843750001,13.39687920625,13.39590264375,13.169468406250001,13.39590264375,12.88894320625C13.39590264375,12.88894320625,13.39590264375,10.22553180625,13.39590264375,10.22553180625C13.39590264375,9.94500590625,13.168491843750001,9.71759530625,12.88796664375,9.71759530625C12.88796664375,9.71759530625,10.22455524375,9.71759530625,10.22455524375,9.71759530625Z"
    fill-rule="evenodd" fill="currentColor" fill-opacity="1"/>
  <path
    d="M8.44775390625,3.1110293531249997C8.44775390625,2.129189433125,9.24369239625,1.333251953125,10.22553180625,1.333251953125C10.22553180625,1.333251953125,12.88894320625,1.333251953125,12.88894320625,1.333251953125C13.87078280625,1.333251953125,14.66672090625,2.129190443125,14.66672090625,3.1110298531250002C14.66672090625,3.1110298531250002,14.66672090625,5.774441253125,14.66672090625,5.774441253125C14.66672090625,6.756280853125,13.870782406250001,7.552218953125,12.888942706249999,7.552218953125C12.888942706249999,7.552218953125,10.22553130625,7.552218953125,10.22553130625,7.552218953125C9.24369138625,7.552218953125,8.44775390625,6.756280453125,8.44775390625,5.774440753125C8.44775390625,5.774440753125,8.44775390625,3.1110293531249997,8.44775390625,3.1110293531249997ZM10.22553180625,2.603093353125C9.94500590625,2.603093353125,9.71759530625,2.830504153125,9.71759530625,3.1110293531249997C9.71759530625,3.1110293531249997,9.71759530625,5.774440753125,9.71759530625,5.774440753125C9.71759530625,6.054966453125,9.94500610625,6.282377253125,10.22553130625,6.282377253125C10.22553130625,6.282377253125,12.888942706249999,6.282377253125,12.888942706249999,6.282377253125C13.169468406250001,6.282377253125,13.39687920625,6.054966453125,13.39687920625,5.774441253125C13.39687920625,5.774441253125,13.39687920625,3.1110298531250002,13.39687920625,3.1110298531250002C13.39687920625,2.830503953125,13.169468406250001,2.603093353125,12.88894320625,2.603093353125C12.88894320625,2.603093353125,10.22553180625,2.603093353125,10.22553180625,2.603093353125Z"
    fill-rule="evenodd" fill="currentColor" fill-opacity="1"/>
</svg>