<svg xmlns="http://www.w3.org/2000/svg" xmlns:xlink="http://www.w3.org/1999/xlink" fill="none" version="1.1" width="16"
     height="16" viewBox="0 0 16 16">
  <defs>
    <clipPath id="master_svg0_400_32011">
      <rect x="0" y="0" width="16" height="16" rx="0"/>
    </clipPath>
  </defs>
  <g clip-path="url(#master_svg0_400_32011)">
    <path
      d="M6.666666686534882,6.000000186534882C5.562097286534882,6.000000186534882,4.666666686534882,5.104569586534882,4.666666686534882,4.000000186534882C4.666666686534882,2.8954307865348814,5.562097286534882,2.0000000865348815,6.666666686534882,2.0000000865348815C7.771236586534882,2.0000000865348815,8.666666686534882,2.8954307865348814,8.666666686534882,4.000000186534882C8.666666686534882,5.104569586534882,7.771236586534882,6.000000186534882,6.666666686534882,6.000000186534882ZM3.3333333865348815,4.000000186534882C3.3333333865348815,2.159050986534882,4.825717586534882,0.6666666865348816,6.666666686534882,0.6666666865348816C8.507615786534881,0.6666666865348816,10.000000686534882,2.159050986534882,10.000000686534882,4.000000186534882C10.000000686534882,5.840949286534881,8.507615786534881,7.333333686534882,6.666666686534882,7.333333686534882C4.825717586534882,7.333333686534882,3.3333333865348815,5.840949286534881,3.3333333865348815,4.000000186534882ZM3.3333333865348815,8.666666686534882C1.8605741865348815,8.666666686534882,0.6666666865348816,9.860574386534882,0.6666666865348816,11.333333686534882L0.6666666865348816,12.000000686534882C0.6666666865348816,13.472759686534882,1.8605741865348815,14.666666686534882,3.3333333865348815,14.666666686534882L10.000000686534882,14.666666686534882C11.472759686534882,14.666666686534882,12.666666686534882,13.472759686534882,12.666666686534882,12.000000686534882L12.666666686534882,11.333333686534882C12.666666686534882,9.860574386534882,11.472759686534882,8.666666686534882,10.000000686534882,8.666666686534882L3.3333333865348815,8.666666686534882ZM2.0000000865348815,11.333333686534882C2.0000000865348815,10.59695408653488,2.5969537865348817,10.000000686534882,3.3333333865348815,10.000000686534882L10.000000686534882,10.000000686534882C10.736380686534881,10.000000686534882,11.333333686534882,10.59695408653488,11.333333686534882,11.333333686534882L11.333333686534882,12.000000686534882C11.333333686534882,12.736379686534882,10.736380686534881,13.333333686534882,10.000000686534882,13.333333686534882L3.3333333865348815,13.333333686534882C2.5969537865348817,13.333333686534882,2.0000000865348815,12.736379686534882,2.0000000865348815,12.000000686534882L2.0000000865348815,11.333333686534882ZM10.954603686534881,1.4513233265348817C11.257618686534881,1.2421680665348815,11.672814686534881,1.3182561965348816,11.881969686534882,1.6212707765348817C12.378664686534881,2.3408605865348813,12.666646686534882,3.2687303865348816,12.666646686534882,4.2646967865348815C12.666646686534882,5.2606636865348815,12.378664686534881,6.188533486534881,11.881969686534882,6.9081231865348816C11.672814686534881,7.211137486534882,11.257618686534881,7.287225386534882,10.954603686534881,7.078070386534882C10.651590086534881,6.868915786534882,10.575501186534881,6.453718886534881,10.784656686534882,6.150705086534882C11.116995686534882,5.6692282865348815,11.333313686534881,5.009474486534882,11.333313686534881,4.2646967865348815C11.333313686534881,3.5199190865348817,11.116995686534882,2.8601652865348814,10.784656686534882,2.3786888865348814C10.575501186534881,2.0756740865348817,10.651590086534881,1.6604784765348817,10.954603686534881,1.4513233265348817ZM14.04537768653488,8.196079886534882C13.790414686534882,7.9304524865348816,13.368393686534882,7.921806486534882,13.102765686534882,8.176768986534881C12.83713768653488,8.431730886534883,12.828491686534882,8.853752786534882,13.083454686534882,9.11937968653488C13.488577686534882,9.541450186534881,13.807713686534882,10.158070286534882,13.926930686534881,10.893244686534882C14.046148686534881,11.628419686534881,13.938227686534882,12.314291686534881,13.687244686534882,12.842756686534882C13.529290686534882,13.175343686534882,13.670857686534882,13.573007686534881,14.003445686534882,13.730962686534882C14.336033686534881,13.888916686534882,14.733694686534882,13.747347686534882,14.891648686534882,13.41476168653488C15.266754686534881,12.624943686534882,15.40249768653488,11.662941686534882,15.243071686534881,10.679816686534881C15.083646686534882,9.696692186534882,14.650853686534882,8.82688488653488,14.04537768653488,8.196079886534882Z"
      fill-rule="evenodd" fill="currentColor" fill-opacity="1"/>
  </g>
</svg>