<svg xmlns="http://www.w3.org/2000/svg" xmlns:xlink="http://www.w3.org/1999/xlink" fill="none" version="1.1" width="16"
     height="16" viewBox="0 0 16 16">
  <defs>
    <clipPath id="master_svg0_371_33342">
      <rect x="0" y="0" width="16" height="16" rx="0"/>
    </clipPath>
  </defs>
  <g clip-path="url(#master_svg0_371_33342)">
    <g>
      <path
        d="M12.66667,3.333251953125L12.666667,7.266581553125L12.670004,7.266581553125C12.667777,7.288735353125,12.666667,7.310986553125,12.666667,7.333251953125C12.666667,7.701441753125,12.965144,7.999918953125,13.333334,7.999918953125C13.701523,7.999918953125,14,7.701441753125,14,7.333251953125C14,7.310986953125,13.99889,7.288735353125,13.996664,7.266581553125L14,7.266581553125L14.000003,3.333252653125Q14.000003,2.504824953125,13.414217,1.919038773125Q12.82843,1.333251953125,12.000003,1.333251953125L4.0000005000000005,1.333251953125Q3.171573,1.333251953125,2.58578652,1.9190381731250001Q2,2.504824953125,2,3.333251953125L2,12.666585953125Q2,13.495011953125,2.58578652,14.080798953125Q3.1715724,14.666585953125,4.000000200000001,14.666585953125L8,14.666585953125C8.3681898,14.666585953125,8.666667,14.368108953125,8.666667,13.999918953125C8.666667,13.631728953125,8.3681898,13.333251953125,8,13.333251953125L4.000000200000001,13.333251953125Q3.7238582,13.333251953125,3.5285957,13.137988953125Q3.3333334,12.942725953125,3.3333334,12.666585953125L3.3333334,3.333251953125Q3.3333334,3.057109853125,3.5285957,2.861847653125Q3.7238579,2.666585353125,4.0000005000000005,2.666585353125L12.000003,2.666585353125Q12.276146,2.666585353125,12.471407,2.861847653125Q12.66667,3.057109853125,12.66667,3.333251953125ZM5.3333335,4.666585453125C5.3333335,4.298395153125,5.6318102,3.999918653125,6,3.999918653125L10,3.999918653125C10.3681898,3.999918653125,10.666667,4.298395153125,10.666667,4.666585453125C10.666667,5.034775253125,10.3681898,5.333251953125,10,5.333251953125L6,5.333251953125C5.6318102,5.333251953125,5.3333335,5.034775253125,5.3333335,4.666585453125ZM5.3333335,7.333251953125C5.3333335,6.965062653125,5.6318102,6.666585453125,6,6.666585453125L10,6.666585453125C10.3681898,6.666585453125,10.666667,6.965062653125,10.666667,7.333251953125C10.666667,7.701441753125,10.3681898,7.999918953125,10,7.999918953125L6,7.999918953125C5.6318102,7.999918953125,5.3333335,7.701441753125,5.3333335,7.333251953125ZM13.186659,10.426615753125Q13.315272,10.170390153125,13.315272,9.882019953125Q13.315272,9.378631553125,12.959326,9.022688353125Q12.603382,8.666748053125,12.1,8.666748053125Q11.5966177,8.666748053125,11.240674,9.022688353125Q10.8847275,9.378631553125,10.8847275,9.882019953125Q10.8847275,10.170385353125,11.0133381,10.426608053125Q11.1375647,10.674100853125,11.3571625,10.843893053125Q11.4179335,10.890880553125,11.4084463,10.928828253125Q11.4025717,10.952328653125,11.3783484,10.952328653125L10.696723,10.952328653125Q10.4081306,10.952328653125,10.2040653,11.156394053125Q10,11.360458953125,10,11.649051953125L10,12.096328953125Q10,12.384920953125,10.2040653,12.588985953125Q10.4081306,12.793052953125,10.696723,12.793052953125L13.503275,12.793052953125Q13.791867,12.793052953125,13.995933,12.588986953125Q14.199999,12.384920953125,14.199999,12.096328953125L14.199999,11.649051953125Q14.199999,11.360458953125,13.995934,11.156394053125Q13.791867,10.952328653125,13.503276,10.952328653125L12.821629,10.952328653125Q12.797411,10.952328653125,12.791537,10.928833953125Q12.782051,10.890891053125,12.842824,10.843902553125Q13.062428,10.674112353125,13.186659,10.426615753125ZM10,14.066796953125C10,14.398167953125,10.2686291,14.666796953125,10.5999994,14.666796953125L13.599998,14.666796953125C13.93137,14.666796953125,14.199999,14.398167953125,14.199999,14.066796953125C14.199999,13.735425953125,13.93137,13.466796953125,13.599998,13.466796953125L10.5999994,13.466796953125C10.2686291,13.466796953125,10,13.735425953125,10,14.066796953125Z"
        fill-rule="evenodd" fill="currentColor" fill-opacity="1"/>
    </g>
  </g>
</svg>