<svg xmlns="http://www.w3.org/2000/svg" xmlns:xlink="http://www.w3.org/1999/xlink" fill="none" version="1.1" width="16"
     height="16" viewBox="0 0 16 16">
  <defs>
    <clipPath id="master_svg0_371_33793">
      <rect x="0" y="0" width="16" height="16" rx="0"/>
    </clipPath>
  </defs>
  <g clip-path="url(#master_svg0_371_33793)">
    <path
      d="M15.333333686534882,8.000000186534882C15.333333686534882,12.050088686534881,12.050088686534881,15.333333686534882,8.000000186534882,15.333333686534882C3.9499117865348814,15.333333686534882,0.6666666865348816,12.050088686534881,0.6666666865348816,8.000000186534882C0.6666666865348816,3.9499117865348814,3.9499117865348814,0.6666666865348816,8.000000186534882,0.6666666865348816C12.050088686534881,0.6666666865348816,15.333333686534882,3.9499117865348814,15.333333686534882,8.000000186534882ZM14.000000686534882,8.000000186534882Q14.000000686534882,6.855541886534882,13.578729686534881,5.791432086534882Q13.121320686534881,4.636037286534881,12.242641686534881,3.7573591865348814Q11.363962686534881,2.8786808865348816,10.20856828653488,2.421270286534882Q9.14446128653488,2.0000000865348815,8.000000186534882,2.0000000865348815Q6.8555389865348815,2.0000000865348815,5.791432086534882,2.421270286534882Q4.636038486534881,2.8786798865348815,3.7573591865348814,3.7573591865348814Q2.8786798865348815,4.636038486534881,2.421270286534882,5.791432086534882Q2.0000000865348815,6.8555389865348815,2.0000000865348815,8.000000186534882Q2.0000000865348815,9.14446128653488,2.421270286534882,10.208569186534882Q2.8786801865348814,11.363962686534881,3.7573591865348814,12.242641686534881Q4.636039186534882,13.121321686534882,5.791432086534882,13.578730686534882Q6.855538086534882,14.000000686534882,8.000000186534882,14.000000686534882Q9.144459386534882,14.000000686534882,10.208569186534882,13.578729686534881Q11.363964686534882,13.121319686534882,12.242641686534881,12.242641686534881Q13.121320686534881,11.363962686534881,13.578730686534882,10.20856828653488Q14.000000686534882,9.14446128653488,14.000000686534882,8.000000186534882Z"
      fill-rule="evenodd" fill="currentColor" fill-opacity="1"/>
    <path
      d="M2.000000063069763,7.333333492279053L14.000000373069764,7.333333492279053C14.368190373069764,7.333333492279053,14.666667373069764,7.631810312279053,14.666667373069764,8.000000182279052C14.666667373069764,8.368190092279052,14.368190373069764,8.666666892279054,14.000000373069764,8.666666892279054L2.000000063069763,8.666666892279054C1.631810193069763,8.666666892279054,1.3333333730697632,8.368190092279052,1.3333333730697632,8.000000182279052C1.3333333730697632,7.631810312279053,1.631810193069763,7.333333492279053,2.000000063069763,7.333333492279053Z"
      fill-rule="evenodd" fill="currentColor" fill-opacity="1"/>
    <path
      d="M10.500042484558104,12.403714686534881Q11.333332584558105,10.424649886534882,11.333333984558106,7.666666686534882Q11.333333984558106,4.908687286534882,10.500042484558104,2.9296189865348814Q10.054693684558107,1.8719147865348815,9.438255284558107,1.2923140565348816Q8.772843384558104,0.6666666865348816,8.000000484558106,0.6666666865348816Q7.227157584558105,0.6666666865348816,6.5617456845581055,1.2923141165348815Q5.9453081845581055,1.8719138865348817,5.499958634558105,2.9296189865348814Q4.6666669845581055,4.908686386534882,4.6666669845581055,7.666666686534882Q4.6666669845581055,10.424646986534881,5.499958634558105,12.403714686534881Q5.9453078845581055,13.461418686534882,6.5617456845581055,14.04101968653488Q7.227157384558105,14.666666686534882,8.000000484558106,14.666666686534882Q8.772844284558104,14.666666686534882,9.438255284558107,14.04101968653488Q10.054691784558106,13.46142068653488,10.500042484558104,12.403714686534881ZM9.271194984558106,3.4470285865348815Q10.000000984558106,5.1779405865348815,10.000000484558106,7.666666686534882Q10.000000484558106,10.155393286534881,9.271194984558106,11.886304686534881Q8.935496284558106,12.683590686534881,8.524917584558105,13.06963268653488Q8.244456284558105,13.333333686534882,8.000000484558106,13.333333686534882Q7.755544384558105,13.333333686534882,7.475083384558106,13.06963268653488Q7.064504384558106,12.68358868653488,6.728805984558106,11.886304686534881Q6.000000484558106,10.155390486534882,6.000000384558105,7.666666686534882Q6.000000384558105,5.177941986534882,6.728805984558106,3.4470285865348815Q7.064504584558105,2.6497436865348813,7.475083384558106,2.2637008865348816Q7.755544384558105,2.0000000865348815,8.000000484558106,2.0000000865348815Q8.244456784558105,2.0000000865348815,8.524917384558105,2.2637008865348816Q8.935495884558105,2.6497435865348815,9.271194984558106,3.4470285865348815Z"
      fill-rule="evenodd" fill="currentColor" fill-opacity="1"/>
  </g>
</svg>