<svg xmlns="http://www.w3.org/2000/svg" xmlns:xlink="http://www.w3.org/1999/xlink" fill="none" version="1.1" width="16"
     height="16" viewBox="0 0 16 16">
  <defs>
    <clipPath id="master_svg0_371_33029">
      <rect x="0" y="0" width="16" height="16" rx="0"/>
    </clipPath>
  </defs>
  <g clip-path="url(#master_svg0_371_33029)">
    <g>
      <path
        d="M13.717607,2.3666586167480466Q13.435214,2.004976916748047,12.990047,1.8936850167480468L8.3233809,0.7270185167480469Q8,0.6461732387480469,7.6766195,0.7270185577480469L3.0099525,1.893685216748047Q2.56478566,2.0049770167480467,2.28239274,2.366658916748047Q2,2.7283408167480467,2,3.187208616748047L2,9.527888316748047Q2,10.853590916748047,2.69696283,11.981299916748046Q3.3939254,13.109010916748048,4.5796702,13.701882916748048L7.4037151,15.113904916748046Q8,15.412047916748048,8.5962858,15.113904916748046L11.42033,13.701880916748047Q12.606073,13.109010916748048,13.303038,11.981299916748046Q14,10.853592916748047,14,9.527888316748047L14,3.187208616748047Q14,2.7283408167480467,13.717607,2.3666586167480466ZM8,2.020541916748047L12.666667,3.187208616748047L12.666667,9.527888316748047Q12.666667,10.474818216748046,12.168837,11.280325916748048Q11.6710072,12.085829916748047,10.8240452,12.509313916748047L8,13.921335916748047L5.1759547999999995,12.509311916748047Q4.3289938,12.085832916748046,3.8311641,11.280325916748048Q3.3333334,10.474819216748047,3.3333334,9.527888316748047L3.3333334,3.187208616748047L8,2.020541916748047ZM9.414213700000001,7.4142861167480465Q10,6.828499816748047,10,6.000072516748047Q10,5.171645616748047,9.414213700000001,4.585858816748047Q8.828427300000001,4.000072516748046,8,4.000072516748046Q7.1715727,4.000072516748046,6.5857863,4.585858816748047Q6,5.171645116748047,6,6.000072516748047Q6,6.828499816748047,6.5857863,7.4142861167480465Q6.9233513,7.751851116748047,7.3414907,7.894890816748047C7.3360677,7.929124816748047,7.333252,7.964229116748047,7.333252,7.999990916748047L7.333252,11.333324916748047C7.333252,11.701513916748047,7.6317286,11.999991916748046,7.9999185,11.999991916748046C8.3681087,11.999991916748046,8.666585399999999,11.701513916748047,8.666585399999999,11.333324916748047L8.666585399999999,10.000072516748046L9.333252,10.000072516748046C9.7014418,10.000072516748046,9.9999189,9.701595316748048,9.9999189,9.333405516748046C9.9999189,8.965215716748046,9.7014418,8.666739016748046,9.333252,8.666739016748046L8.666585399999999,8.666739016748046L8.666585399999999,7.999990916748047C8.666585399999999,7.9642472167480465,8.6637721,7.9291611167480465,8.658355700000001,7.894940816748047Q9.0765867,7.751913116748047,9.414213700000001,7.4142861167480465ZM8.4714046,5.528667916748047Q8.666667,5.723930316748047,8.666667,6.000072516748047Q8.666667,6.276215116748046,8.4714046,6.471477016748047Q8.2761426,6.6667394167480465,8,6.6667394167480465Q7.7238579,6.6667394167480465,7.5285954,6.471477016748047Q7.3333335,6.276215116748046,7.3333335,6.000072516748047Q7.3333335,5.723930316748047,7.5285954,5.528667916748047Q7.7238579,5.333406016748047,8,5.333406016748047Q8.2761426,5.333406016748047,8.4714046,5.528667916748047Z"
        fill-rule="evenodd" fill="currentColor" fill-opacity="1"/>
    </g>
  </g>
</svg>