<svg xmlns="http://www.w3.org/2000/svg" xmlns:xlink="http://www.w3.org/1999/xlink" fill="none" version="1.1" width="16"
     height="16" viewBox="0 0 16 16">
  <defs>
    <clipPath id="master_svg0_371_33304">
      <rect x="0" y="0" width="16" height="16" rx="0"/>
    </clipPath>
  </defs>
  <g clip-path="url(#master_svg0_371_33304)">
    <path
      d="M4.000000073069764,6.000000186534882C5.472759573069763,6.000000186534882,6.666666873069763,4.8060928865348815,6.666666873069763,3.3333333865348815C6.666666873069763,1.8605739865348816,5.472759573069763,0.6666666865348816,4.000000073069764,0.6666666865348816C2.5272406730697634,0.6666666865348816,1.3333333730697632,1.8605739865348816,1.3333333730697632,3.3333333865348815C1.3333333730697632,4.8060928865348815,2.5272406730697634,6.000000186534882,4.000000073069764,6.000000186534882ZM4.000000073069764,2.0000000865348815C4.736379773069763,2.0000000865348815,5.333333373069763,2.5969537865348817,5.333333373069763,3.3333333865348815C5.333333373069763,4.069713086534882,4.736379773069763,4.666666686534882,4.000000073069764,4.666666686534882C3.2636204730697633,4.666666686534882,2.666666773069763,4.069713086534882,2.666666773069763,3.3333333865348815C2.666666773069763,2.5969537865348817,3.2636204730697633,2.0000000865348815,4.000000073069764,2.0000000865348815Z"
      fill-rule="evenodd" fill="currentColor" fill-opacity="1"/>
    <path
      d="M4.000000073069764,15.3333335C5.472759573069763,15.3333335,6.666666873069763,14.139426199999999,6.666666873069763,12.6666667C6.666666873069763,11.1939073,5.472759573069763,10,4.000000073069764,10C2.5272406730697634,10,1.3333333730697632,11.1939073,1.3333333730697632,12.6666667C1.3333333730697632,14.139426199999999,2.5272406730697634,15.3333335,4.000000073069764,15.3333335ZM4.000000073069764,11.3333334C4.736379773069763,11.3333334,5.333333373069763,11.9302871,5.333333373069763,12.6666667C5.333333373069763,13.403046400000001,4.736379773069763,14,4.000000073069764,14C3.2636204730697633,14,2.666666773069763,13.403046400000001,2.666666773069763,12.6666667C2.666666773069763,11.9302871,3.2636204730697633,11.3333334,4.000000073069764,11.3333334Z"
      fill-rule="evenodd" fill="currentColor" fill-opacity="1"/>
    <g>
      <path
        d="M5.942296053125,3.8101448501472754Q5.8733873531250005,4.090759728707275,5.7278706531250005,4.340395268707275Q5.5823535531249995,4.590030848707276,5.3721296531250005,4.788270418707276L10.012016253125001,7.781029268707275Q10.032399153124999,7.595927268707275,10.086604553125,7.417769868707275Q10.140810453124999,7.239612568707275,10.226975453125,7.074525068707276Q10.313141853125,6.9094381687072755,10.428304653125,6.763097068707276Q10.543467953124999,6.616755968707276,10.683668653125,6.494191368707275L5.942296053125,3.8101448501472754ZM10.707054153125,9.525811168707275Q10.445262953124999,9.303983168707276,10.272383653125,9.007579368707276Q10.099504453125,8.711175468707275,10.035310753125,8.374097368707275L5.292701953125,11.140604968707276Q5.554532553125,11.362394768707276,5.727460353125,11.658776268707275Q5.900387753125,11.955157768707275,5.964633253125,12.292231068707276L10.707054153125,9.525811168707275ZM4.666585353125,5.218836268707276L4.666585353125,10.781038768707276Q4.343101353125,10.666685568707276,4.000000003125,10.666685568707276Q3.656809803125,10.666685568707276,3.333251953125,10.781096468707275L3.333251953125,5.218778868707275Q3.656809803125,5.333189468707276,4.000000003125,5.333189468707276Q4.343101353125,5.333189468707276,4.666585353125,5.218836268707276Z"
        fill-rule="evenodd" fill="currentColor" fill-opacity="1"/>
    </g>
    <path
      d="M12.000000669116211,10.666666992279053C13.47276016911621,10.666666992279053,14.666667469116211,9.472759692279052,14.666667469116211,8.000000192279053C14.666667469116211,6.527240792279053,13.47276016911621,5.333333492279053,12.000000669116211,5.333333492279053C10.52724126911621,5.333333492279053,9.333333969116211,6.527240792279053,9.333333969116211,8.000000192279053C9.333333969116211,9.472759692279052,10.52724126911621,10.666666992279053,12.000000669116211,10.666666992279053ZM12.000000669116211,6.666666892279053C12.736380369116212,6.666666892279053,13.333333969116211,7.263620592279053,13.333333969116211,8.000000192279053C13.333333969116211,8.736379892279054,12.736380369116212,9.333333492279053,12.000000669116211,9.333333492279053C11.26362106911621,9.333333492279053,10.666667369116212,8.736379892279054,10.666667369116212,8.000000192279053C10.666667369116212,7.263620592279053,11.26362106911621,6.666666892279053,12.000000669116211,6.666666892279053Z"
      fill-rule="evenodd" fill="currentColor" fill-opacity="1"/>
  </g>
</svg>