<svg xmlns="http://www.w3.org/2000/svg" xmlns:xlink="http://www.w3.org/1999/xlink" fill="none" version="1.1" width="16"
     height="16" viewBox="0 0 16 16">
  <defs>
    <clipPath id="master_svg0_371_33294">
      <rect x="0" y="0" width="16" height="16" rx="0"/>
    </clipPath>
  </defs>
  <g clip-path="url(#master_svg0_371_33294)">
    <g>
      <path
        d="M13.530523503936768,3.670885558886719L8.532474503936768,1.5030207588867188Q8.003767003936767,1.2736978488867188,7.474474403936767,1.5016686888867188L2.4384913439367675,3.670711558886719Q1.6325612068177675,4.017832758886719,1.6325941085817677,4.895339458886719L1.6328477859467676,11.505412858886718Q1.6328816413867675,12.374623858886718,2.4275975239367673,12.725078858886718L4.882197903936768,13.80751485888672L7.464903403936767,14.946443858886719Q8.002462903936767,15.183496858886718,8.538294303936768,14.94789085888672L11.103193803936767,13.82009685888672L13.540873503936767,12.748239858886718Q14.333538503936767,12.399703858886719,14.333508503936768,11.529408858886718L14.333292503936768,4.894066358886718Q14.333263503936768,4.0190677588867185,13.530523503936768,3.670885558886719ZM2.9659266039367678,4.895288458886719L8.001910703936767,2.7262458588867187L12.999958503936767,4.894110158886718L13.000175503936768,11.52945285888672L10.566512603936767,12.599543858886719L8.001613603936768,13.72733885888672L8.002889203936768,13.726464858886718L5.420187003936768,12.58753785888672L2.9661808039367674,11.505361858886719L2.9659266039367678,4.895288458886719ZM4.914226503936767,5.047735658886719L7.999966103936767,6.282031558886719L11.085400103936768,5.047857958886719L11.085706203936768,5.047735658886719C11.164453003936767,5.016236758886719,11.248487003936768,5.000053358886719,11.333300103936768,5.000053358886719C11.701489503936768,5.000053358886719,11.999966503936768,5.298530058886719,11.999966503936768,5.666719958886719C11.999966503936768,5.939323458886719,11.833999503936768,6.184462558886719,11.580893003936767,6.2857046588867185L11.580587903936767,6.285826658886719L8.666714203936767,7.451376458886719L8.666714203936767,12.00638185888672C8.666714203936767,12.37457185888672,8.363237403936768,12.66680185888672,7.995047603936768,12.66680185888672C7.636857503936768,12.66680185888672,7.333381203936767,12.37457185888672,7.333381203936767,12.00638185888672L7.3333807039367676,7.451441258886719L4.419039003936767,6.2857046588867185C4.1659334039367675,6.184462558886719,3.9999661039367678,5.939322958886719,3.9999661039367678,5.666719958886719C3.9999661039367678,5.298530058886719,4.2984428039367675,5.000053358886719,4.666632903936767,5.000053358886719C4.751445803936768,5.000053358886719,4.835479703936768,5.016236758886719,4.914226503936767,5.047735658886719Z"
        fill-rule="evenodd" fill="currentColor" fill-opacity="1"/>
    </g>
  </g>
</svg>