<svg xmlns="http://www.w3.org/2000/svg" xmlns:xlink="http://www.w3.org/1999/xlink" fill="none" version="1.1" width="16"
     height="16" viewBox="0 0 16 16">
  <defs>
    <clipPath id="master_svg0_371_33313">
      <rect x="0" y="0" width="16" height="16" rx="0"/>
    </clipPath>
  </defs>
  <g clip-path="url(#master_svg0_371_33313)">
    <g>
      <path
        d="M12.959085953125,7.333251595497131C13.902204953125,7.333251595497131,14.666747953125,8.10611689549713,14.666747953125,9.059488895497132C14.666747953125,9.059488895497132,14.666747953125,12.940348595497131,14.666747953125,12.940348595497131C14.666747953125,13.89372059549713,13.902184953125,14.666585595497132,12.959064953125,14.666585595497132C12.959064953125,14.666585595497132,11.041076653125,14.666585595497132,11.041076653125,14.666585595497132C10.097957653125,14.666585595497132,9.333414053125,13.89372059549713,9.333414053125,12.940348595497131C9.333414053125,12.940348595497131,9.333414053125,9.059488895497132,9.333414053125,9.059488895497132C9.333414053125,8.106116395497132,10.097957653125,7.333251595497131,11.041076653125,7.333251595497131C11.041076653125,7.333251595497131,12.959085953125,7.333251595497131,12.959085953125,7.333251595497131ZM13.446980953125,9.059488895497132C13.446980953125,8.787096595497133,13.228547953125,8.566283795497132,12.959085953125,8.566283795497132C12.959085953125,8.566283795497132,11.041076653125,8.566283795497132,11.041076653125,8.566283795497132C10.771614053125,8.566283795497132,10.553181653125,8.787097095497131,10.553181653125,9.059488895497132C10.553181653125,9.059488895497132,10.553181653125,12.940348595497131,10.553181653125,12.940348595497131C10.553181653125,13.212739595497132,10.771614053125,13.43355359549713,11.041076653125,13.43355359549713C11.041076653125,13.43355359549713,12.959064953125,13.43355359549713,12.959064953125,13.43355359549713C13.228527953125,13.43355359549713,13.446980953125,13.212739595497132,13.446980953125,12.940348595497131C13.446980953125,12.940348595497131,13.446980953125,9.059488895497132,13.446980953125,9.059488895497132ZM6.959065453125,7.333251595497131C7.902184453125,7.333251595497131,8.666748053125,8.10611689549713,8.666748053125,9.059488895497132C8.666748053125,9.059488895497132,8.666748053125,12.940348595497131,8.666748053125,12.940348595497131C8.666748053125,13.89372059549713,7.902184053125,14.666585595497132,6.959065453125,14.666585595497132C6.959065453125,14.666585595497132,3.0410766531249998,14.666585595497132,3.0410766531249998,14.666585595497132C2.0979576131249997,14.666585595497132,1.333414554595,13.89372059549713,1.333414554595,12.940348595497131C1.333414554595,12.940348595497131,1.333414554595,9.059488895497132,1.333414554595,9.059488895497132C1.333414554595,8.106116395497132,2.0979576131249997,7.333251595497131,3.0410766531249998,7.333251595497131C3.0410766531249998,7.333251595497131,6.959065453125,7.333251595497131,6.959065453125,7.333251595497131ZM7.446980453125,9.059488895497132C7.446980453125,8.787096595497133,7.228527553125,8.56624329549713,6.959065453125,8.56624329549713C6.959065453125,8.56624329549713,3.0410766531249998,8.56624329549713,3.0410766531249998,8.56624329549713C2.771614053125,8.56624329549713,2.553181653125,8.787097095497131,2.553181653125,9.059488895497132C2.553181653125,9.059488895497132,2.553181653125,12.940348595497131,2.553181653125,12.940348595497131C2.553181653125,13.21274059549713,2.771614053125,13.43355359549713,3.0410766531249998,13.43355359549713C3.0410766531249998,13.43355359549713,6.959065453125,13.43355359549713,6.959065453125,13.43355359549713C7.228528053125,13.43355359549713,7.446980453125,13.21274059549713,7.446980453125,12.940348595497131C7.446980453125,12.940348595497131,7.446980453125,9.059488895497132,7.446980453125,9.059488895497132ZM1.333251953125,3.0409339954971313C1.333251953125,2.0978151554971314,2.106117253125,1.3332515954971313,3.059489053125,1.3332515954971313C3.059489053125,1.3332515954971313,12.940348953125,1.3332515954971313,12.940348953125,1.3332515954971313C13.893720953125,1.3332515954971313,14.666585953125,2.0978155154971314,14.666585953125,3.0409339954971313C14.666585953125,3.0409339954971313,14.666585953125,4.958902695497131,14.666585953125,4.958902695497131C14.666585953125,5.902021995497131,13.893720953125,6.6665850954971315,12.940348953125,6.6665850954971315C12.940348953125,6.6665850954971315,3.059468653125,6.6665850954971315,3.059468653125,6.6665850954971315C2.1060964431249998,6.6665850954971315,1.333251953125,5.902021995497131,1.333251953125,4.958902695497131C1.333251953125,4.958902695497131,1.333251953125,3.0409339954971313,1.333251953125,3.0409339954971313ZM3.059489053125,2.5530188954971313C2.7870967531249997,2.5530188954971313,2.566243553125,2.7714719954971314,2.566243553125,3.0409339954971313C2.566243553125,3.0409339954971313,2.566263953125,4.958902695497131,2.566263953125,4.958902695497131C2.566263953125,5.228365295497131,2.787076953125,5.446817995497131,3.059468653125,5.446817995497131C3.059468653125,5.446817995497131,12.940348953125,5.446817995497131,12.940348953125,5.446817995497131C13.212740953125,5.446817995497131,13.433553953125,5.228365295497131,13.433553953125,4.958902695497131C13.433553953125,4.958902695497131,13.433553953125,3.0409339954971313,13.433553953125,3.0409339954971313C13.433553953125,2.771471395497131,13.212740953125,2.5530188954971313,12.940348953125,2.5530188954971313C12.940348953125,2.5530188954971313,3.059489053125,2.5530188954971313,3.059489053125,2.5530188954971313Z"
        fill-rule="evenodd" fill="currentColor" fill-opacity="1"/>
    </g>
  </g>
</svg>