<svg xmlns="http://www.w3.org/2000/svg" xmlns:xlink="http://www.w3.org/1999/xlink" fill="none" version="1.1" width="16"
     height="16" viewBox="0 0 16 16">
  <defs>
    <clipPath id="master_svg0_394_31933">
      <rect x="0" y="0" width="16" height="16" rx="0"/>
    </clipPath>
    <clipPath id="bgblur_master_svg1_394_31933/394_31930_clip_path">
      <path
        d="M0 2.0020752L0 11.331259Q0 12.158137 0.57596844 12.74292Q1.1574887 13.333327 1.9875082 13.333334L11.345825 13.333334Q12.175831 13.333334 12.757365 12.74292Q13.333344 12.158141 13.333334 11.331259L13.333334 2.0020752Q13.333334 1.1751989 12.757365 0.59041345Q12.175846 5.7220459e-06 11.345825 0L1.9875082 0Q1.1575001 0 0.57596844 0.59041345Q-8.5830688e-06 1.1751941 0 2.0020752ZM1.5258993 11.807292Q1.3333238 11.611773 1.3333334 11.331259L1.3333334 7.3333335L1.3333334 2.0020752Q1.3333334 1.7215686 1.5258993 1.5260417Q1.7157042 1.3333358 1.9875082 1.3333334L11.345825 1.3333334Q11.617614 1.3333334 11.807414 1.5260417Q11.999991 1.7215627 12 2.0020752L12 11.331259Q12 11.611765 11.807414 11.807292Q11.61761 11.999998 11.345825 12L1.9875082 12Q1.7157173 12 1.5258993 11.807292Z"/>
    </clipPath>
  </defs>
  <g clip-path="url(#master_svg0_394_31933)">
    <path
      d="M1.3333333730697632,3.3354085730697633L1.3333333730697632,12.664592373069762Q1.3333333730697632,13.491470373069763,1.9093018130697632,14.076253373069763Q2.490822073069763,14.666660373069764,3.320841573069763,14.666667373069764L12.679158373069763,14.666667373069764Q13.509164373069764,14.666667373069764,14.090698373069763,14.076253373069763Q14.666677373069763,13.491474373069764,14.666667373069764,12.664592373069762L14.666667373069764,3.3354085730697633Q14.666667373069764,2.508532273069763,14.090698373069763,1.9237468230697632Q13.509179373069763,1.3333390951156632,12.679158373069763,1.3333333730697632L3.320841573069763,1.3333333730697632Q2.490833473069763,1.3333333730697632,1.9093018130697632,1.9237468230697632Q1.3333247900009633,2.508527473069763,1.3333333730697632,3.3354085730697633ZM2.859232673069763,13.140625373069764Q2.6666571730697632,12.945106373069763,2.666666773069763,12.664592373069762L2.666666773069763,8.666666873069763L2.666666773069763,3.3354085730697633Q2.666666773069763,3.054901973069763,2.859232673069763,2.859375073069763Q3.0490375730697634,2.666669173069763,3.320841573069763,2.666666773069763L12.679158373069763,2.666666773069763Q12.950947373069763,2.666666773069763,13.140747373069763,2.859375073069763Q13.333324373069763,3.054896073069763,13.333333373069763,3.3354085730697633L13.333333373069763,12.664592373069762Q13.333333373069763,12.945098373069763,13.140747373069763,13.140625373069764Q12.950943373069764,13.333331373069763,12.679158373069763,13.333333373069763L3.320841573069763,13.333333373069763Q3.049050673069763,13.333333373069763,2.859232673069763,13.140625373069764Z"
      fill-rule="evenodd" fill="currentColor" fill-opacity="1"/>
    <rect x="2.6666667461395264" y="5.333333492279053" width="10.666666984558105" height="1.3333333730697632" rx="0"
          fill="currentColor" fill-opacity="1"/>
    <rect x="2.6666667461395264" y="9.333333969116211" width="10.666666984558105" height="1.3333333730697632" rx="0"
          fill="currentColor" fill-opacity="1"/>
    <rect x="4" y="3.3333334922790527" width="2.6666667461395264" height="1.3333333730697632" rx="0.6666666865348816"
          fill="currentColor" fill-opacity="1"/>
    <rect x="4" y="7.333333492279053" width="2.6666667461395264" height="1.3333333730697632" rx="0.6666666865348816"
          fill="currentColor" fill-opacity="1"/>
    <rect x="4" y="11.333333969116211" width="2.6666667461395264" height="1.3333333730697632" rx="0.6666666865348816"
          fill="currentColor" fill-opacity="1"/>
  </g>
</svg>